<svg xmlns="http://www.w3.org/2000/svg" width="50" height="29" viewBox="0 0 50 29">
<!-- SVG created with Arrow, by QuiverAI (https://quiver.ai) -->
  <path d="m23.28 1.32v2.23h-3.93l-0.36 6.18h4.32v2.09h-21.07v-2.09h4.28l-0.25-6.18h-4.01v-2.23h21.02zm-22.63 13.17h24.26v2.12h-11.01v3.21h8.87v8.95h-20.04v-8.95h8.94v-3.21h-11.02v-2.12zm4.56 7.42v4.76h15.07v-4.76h-15.07zm3.55-18.36 0.3 6.18h7.67l0.28-6.18h-8.25z" fill="#3C3538"/>
  <path d="m28.53 2.02h12.74v0.72c0 7.44-4.48 12.45-12.81 14.57l-1.1-1.99c7.01-1.86 10.89-5.64 11.22-11.08h-10.05v-2.22zm1.96 17.37h18.86v9.58h-2.35v-7.49h-16.51v-2.09zm16.63-19.39h2.33v18.01h-2.43v-4.1h-6v-2.05h6v-4.4h-4.73v-2.12h4.83v-5.34z" fill="#3C3538"/>
</svg>