<svg width="21" height="11" viewBox="0 0 21 11" fill="none" xmlns="http://www.w3.org/2000/svg">
<path d="M-6.28829e-06 0.804008H4.99199V5.44801H-6.28829e-06V0.804008ZM4.01999 1.60801H0.971994V4.64401H4.01999V1.60801ZM6.98399 0.0600085H7.97999V6.25201H6.98399V0.0600085ZM7.70399 2.66401H9.57599V3.49201H7.70399V2.66401ZM4.09199 7.26001H4.93199V7.54801C4.93199 7.97201 4.82799 8.36801 4.61999 8.73601C4.41999 9.10401 4.13599 9.43201 3.76799 9.72001C3.40799 10.008 2.99199 10.248 2.51999 10.44C2.04799 10.64 1.54399 10.784 1.00799 10.872L0.635994 10.104C1.09999 10.04 1.53999 9.92801 1.95599 9.76801C2.37199 9.60801 2.73999 9.41601 3.05999 9.19201C3.37999 8.96001 3.63199 8.70401 3.81599 8.42401C3.99999 8.14401 4.09199 7.85201 4.09199 7.54801V7.26001ZM4.27199 7.26001H5.12399V7.54801C5.12399 7.85201 5.21599 8.14001 5.39999 8.41201C5.59199 8.68401 5.84799 8.93601 6.16799 9.16801C6.48799 9.40001 6.85199 9.60001 7.25999 9.76801C7.67599 9.92801 8.11599 10.044 8.57999 10.116L8.20799 10.884C7.67199 10.788 7.16799 10.64 6.69599 10.44C6.22399 10.248 5.80399 10.008 5.43599 9.72001C5.07599 9.42401 4.79199 9.09201 4.58399 8.72401C4.37599 8.35601 4.27199 7.96401 4.27199 7.54801V7.26001ZM1.05599 6.88801H8.15999V7.69201H1.05599V6.88801ZM14.9991 6.04801H15.9831V7.75201H14.9991V6.04801ZM10.5951 5.42401H20.3991V6.22801H10.5951V5.42401ZM14.9991 8.58307e-06H15.9831V1.51201H14.9991V8.58307e-06ZM14.9511 1.60801H15.8271V1.77601C15.8271 2.21601 15.7111 2.61201 15.4791 2.96401C15.2551 3.30801 14.9391 3.60801 14.5311 3.86401C14.1311 4.11201 13.6671 4.31201 13.1391 4.46401C12.6111 4.61601 12.0511 4.72401 11.4591 4.78801L11.1591 4.03201C11.6871 3.99201 12.1791 3.90801 12.6351 3.78001C13.0991 3.65201 13.5031 3.49201 13.8471 3.30001C14.1911 3.10801 14.4591 2.88401 14.6511 2.62801C14.8511 2.36401 14.9511 2.08001 14.9511 1.77601V1.60801ZM15.1671 1.60801H16.0311V1.77601C16.0311 2.08001 16.1271 2.36401 16.3191 2.62801C16.5191 2.88401 16.7911 3.10801 17.1351 3.30001C17.4871 3.49201 17.8911 3.65201 18.3471 3.78001C18.8031 3.90801 19.2951 3.99201 19.8231 4.03201L19.5351 4.78801C18.9351 4.72401 18.3711 4.61601 17.8431 4.46401C17.3231 4.31201 16.8591 4.11201 16.4511 3.86401C16.0511 3.60801 15.7351 3.30801 15.5031 2.96401C15.2791 2.61201 15.1671 2.21601 15.1671 1.77601V1.60801ZM11.6031 1.08001H19.4031V1.87201H11.6031V1.08001ZM11.7951 7.40401H19.1991V10.776H11.7951V7.40401ZM18.2271 8.20801H12.7671V9.96001H18.2271V8.20801Z" fill="black"/>
</svg>
