<svg width="34" height="18" viewBox="0 0 34 18" fill="none" xmlns="http://www.w3.org/2000/svg">
<g clip-path="url(#clip0_36_245)">
<path d="M0 1.31564H8.08228V8.91491H0V1.31564ZM6.50857 2.63128H1.57371V7.59928H6.50857V2.63128ZM11.3074 0.0981817H12.92V10.2305H11.3074V0.0981817ZM12.4731 4.35928H15.504V5.71418H12.4731V4.35928ZM6.62514 11.88H7.98514V12.3513C7.98514 13.0451 7.81676 13.6931 7.47999 14.2953C7.15618 14.8975 6.69638 15.4342 6.10057 15.9055C5.51771 16.3767 4.84418 16.7694 4.07999 17.0836C3.3158 17.4109 2.4998 17.6465 1.63199 17.7905L1.02971 16.5338C1.78095 16.4291 2.49333 16.2458 3.16685 15.984C3.84037 15.7222 4.43618 15.408 4.95428 15.0415C5.47237 14.6618 5.88037 14.2429 6.17828 13.7847C6.47618 13.3265 6.62514 12.8487 6.62514 12.3513V11.88ZM6.91657 11.88H8.29599V12.3513C8.29599 12.8487 8.44495 13.32 8.74285 13.7651C9.05371 14.2102 9.46818 14.6225 9.98628 15.0022C10.5044 15.3818 11.0937 15.7091 11.7543 15.984C12.4278 16.2458 13.1402 16.4356 13.8914 16.5534L13.2891 17.8102C12.4213 17.6531 11.6053 17.4109 10.8411 17.0836C10.0769 16.7694 9.39695 16.3767 8.80114 15.9055C8.21828 15.4211 7.75847 14.8778 7.42171 14.2756C7.08495 13.6735 6.91657 13.032 6.91657 12.3513V11.88ZM1.70971 11.2713H13.2114V12.5869H1.70971V11.2713ZM24.2843 9.89673H25.8774V12.6851H24.2843V9.89673ZM17.154 8.87564H33.0271V10.1913H17.154V8.87564ZM24.2843 0H25.8774V2.47418H24.2843V0ZM24.2066 2.63128H25.6248V2.90618C25.6248 3.62618 25.437 4.27418 25.0614 4.85018C24.6987 5.41309 24.1871 5.904 23.5266 6.32291C22.8789 6.72873 22.1277 7.056 21.2728 7.30473C20.418 7.55346 19.5113 7.73018 18.5528 7.83491L18.0671 6.59782C18.922 6.53237 19.7186 6.39491 20.4568 6.18546C21.2081 5.976 21.8622 5.71418 22.4191 5.4C22.9761 5.08582 23.41 4.71928 23.7208 4.30037C24.0446 3.86837 24.2066 3.40364 24.2066 2.90618V2.63128ZM24.5563 2.63128H25.9551V2.90618C25.9551 3.40364 26.1106 3.86837 26.4214 4.30037C26.7452 4.71928 27.1856 5.08582 27.7426 5.4C28.3125 5.71418 28.9666 5.976 29.7048 6.18546C30.4431 6.39491 31.2397 6.53237 32.0946 6.59782L31.6283 7.83491C30.6568 7.73018 29.7437 7.55346 28.8888 7.30473C28.0469 7.056 27.2957 6.72873 26.6351 6.32291C25.9875 5.904 25.4759 5.41309 25.1003 4.85018C24.7376 4.27418 24.5563 3.62618 24.5563 2.90618V2.63128ZM18.786 1.76728H31.4146V3.06328H18.786V1.76728ZM19.0968 12.1156H31.0843V17.6334H19.0968V12.1156ZM29.5106 13.4313H20.6706V16.2982H29.5106V13.4313Z" fill="black"/>
<path d="M3 2L7 2" stroke="black"/>
<path d="M7.5 2V8" stroke="black"/>
<path d="M7.5 8H1" stroke="black"/>
<path d="M1 8V2" stroke="black"/>
<path d="M12 1V9.5" stroke="black"/>
<path d="M12 5H15" stroke="black"/>
<path d="M2.5 12H12.5" stroke="black"/>
<path d="M7.5 12V13.5" stroke="black"/>
<path d="M7.5 13.5L6.5 14.5L4.5 16L2.5 17" stroke="black"/>
<path d="M7.5 13.5L8.5 14.5L10.5 16L12.5 17" stroke="black"/>
<path d="M25 1V4" stroke="black"/>
<path d="M19.5 2.5H30.5" stroke="black"/>
<path d="M25 4L23 6L21.5 6.5L20 7" stroke="black"/>
<path d="M25 4L26 5L27.5 6L29 6.5L30.5 7" stroke="black"/>
<path d="M18 9.5H32.5" stroke="black"/>
<path d="M25 9.5V12.5" stroke="black"/>
<path d="M30 17H20V13" stroke="black"/>
<path d="M20 13H30.5V17" stroke="black"/>
</g>
<defs>
<clipPath id="clip0_36_245">
<rect width="34" height="18" fill="white"/>
</clipPath>
</defs>
</svg>
