<svg width="21" height="11" viewBox="0 0 21 11" fill="none" xmlns="http://www.w3.org/2000/svg">
<path d="M2.4423e-05 5.27998H9.82802V6.09598H2.4423e-05V5.27998ZM4.40402 3.62398H5.38802V5.65198H4.40402V3.62398ZM4.39202 -1.88351e-05H5.24402V0.491981C5.24402 0.875981 5.16802 1.23998 5.01602 1.58398C4.86402 1.92798 4.64802 2.24398 4.36802 2.53198C4.09602 2.81998 3.78002 3.07598 3.42002 3.29998C3.06002 3.51598 2.67202 3.70398 2.25602 3.86398C1.84002 4.01598 1.40802 4.12798 0.960025 4.19998L0.588024 3.40798C0.972024 3.35198 1.34802 3.26398 1.71602 3.14398C2.09202 3.01598 2.44002 2.86398 2.76002 2.68798C3.08002 2.50398 3.36002 2.29598 3.60002 2.06398C3.84802 1.83198 4.04002 1.58398 4.17602 1.31998C4.32002 1.05598 4.39202 0.779981 4.39202 0.491981V-1.88351e-05ZM4.54802 -1.88351e-05H5.40002V0.491981C5.40002 0.779981 5.46802 1.05598 5.60402 1.31998C5.74002 1.58398 5.93202 1.83198 6.18002 2.06398C6.42802 2.28798 6.71202 2.49198 7.03202 2.67598C7.35203 2.85998 7.69603 3.01598 8.06403 3.14398C8.44003 3.26398 8.82002 3.35198 9.20402 3.40798L8.82002 4.19998C8.38002 4.12798 7.95202 4.01598 7.53602 3.86398C7.12802 3.70398 6.74002 3.51198 6.37202 3.28798C6.01202 3.06398 5.69202 2.81198 5.41202 2.53198C5.14002 2.24398 4.92802 1.93198 4.77602 1.59598C4.62402 1.25198 4.54802 0.883981 4.54802 0.491981V-1.88351e-05ZM1.09202 7.15198H8.59202V10.692H7.59602V7.94398H1.09202V7.15198ZM12.2871 4.90798H19.7391V5.71198H12.2871V4.90798ZM11.0391 8.49598H20.8791V9.32398H11.0391V8.49598ZM15.4431 5.25598H16.4271V8.81998H15.4431V5.25598ZM12.2871 0.695981H19.6311V1.52398H13.2831V5.26798H12.2871V0.695981Z" fill="black"/>
</svg>
