<svg width="46" height="24" viewBox="0 0 46 24" fill="none" xmlns="http://www.w3.org/2000/svg">
<g clip-path="url(#clip0_36_327)">
<path d="M0 11.52H21.528V13.3004H0V11.52ZM9.64685 7.90691H11.8023V12.3316H9.64685V7.90691ZM9.62056 0H11.4868V1.07345C11.4868 1.91127 11.3204 2.70545 10.9874 3.456C10.6545 4.20654 10.1813 4.896 9.56799 5.52436C8.97218 6.15272 8.27999 6.71127 7.49142 7.2C6.70285 7.67127 5.85294 8.08145 4.9417 8.43054C4.03047 8.76218 3.08418 9.00654 2.10286 9.16363L1.288 7.43563C2.12914 7.31345 2.95275 7.12145 3.75885 6.85963C4.58247 6.58036 5.34475 6.24872 6.0457 5.86472C6.74666 5.46327 7.35999 5.00945 7.8857 4.50327C8.42894 3.99709 8.84951 3.456 9.14742 2.88C9.46285 2.304 9.62056 1.70182 9.62056 1.07345V0ZM9.96228 0H11.8286V1.07345C11.8286 1.70182 11.9775 2.304 12.2754 2.88C12.5733 3.456 12.9939 3.99709 13.5371 4.50327C14.0804 4.992 14.7025 5.43709 15.4034 5.83854C16.1044 6.24 16.8579 6.58036 17.664 6.85963C18.4876 7.12145 19.32 7.31345 20.1611 7.43563L19.32 9.16363C18.3562 9.00654 17.4187 8.76218 16.5074 8.43054C15.6137 8.08145 14.7638 7.66254 13.9577 7.17382C13.1691 6.68509 12.4682 6.13527 11.8548 5.52436C11.259 4.896 10.7947 4.21527 10.4617 3.48218C10.1288 2.73163 9.96228 1.92873 9.96228 1.07345V0ZM2.39199 15.6044H18.8206V23.328H16.6388V17.3324H2.39199V15.6044ZM26.9145 10.7084H43.238V12.4625H26.9145V10.7084ZM24.1808 18.5367H45.7351V20.3433H24.1808V18.5367ZM33.8277 11.4676H35.9831V19.2436H33.8277V11.4676ZM26.9145 1.51855H43.0014V3.32509H29.0963V11.4938H26.9145V1.51855Z" fill="black"/>
<path d="M10.5 1V3L7.5 6L3 8" stroke="black"/>
<path d="M10.5 3L13 5L15 6.5L18 8" stroke="black"/>
<path d="M10.5 9V12" stroke="black"/>
<path d="M1 12.5H20.5" stroke="black"/>
<path d="M3 16.5H17.5" stroke="black"/>
<path d="M17.5 16.5V22.5" stroke="black"/>
<path d="M28 2.5H42.5" stroke="black"/>
<path d="M28 2.5V11.5H42.5" stroke="black"/>
<path d="M35 11.5V19.5" stroke="black"/>
<path d="M25.5 19.5H44.5" stroke="black"/>
</g>
<defs>
<clipPath id="clip0_36_327">
<rect width="46" height="24" fill="white"/>
</clipPath>
</defs>
</svg>
