<svg width="70" height="87" viewBox="0 0 70 87" fill="none" xmlns="http://www.w3.org/2000/svg">
<path d="M50.7417 61.18L51.5117 61.16C53.8817 61.16 58.1417 61.36 61.6417 61.36C64.5117 61.36 67.2417 61.23 68.8417 61.16L68.9717 61.15C69.6117 61.15 69.3217 62.96 68.6817 62.96C65.3117 62.96 64.6717 64.27 64.6717 67.36V80.05C60.2217 83.54 54.3517 86.14 45.8917 86.14C30.7917 86.14 17.1217 79.16 17.1217 59.12C17.1217 44.3 27.8217 30.91 44.7617 30.91C53.2917 30.91 59.3617 33.48 62.5417 36.65C63.1717 37.61 63.3217 42.65 63.7417 46.19C63.8817 47.01 63.1717 47.15 63.1017 46.94C59.2917 37.33 52.9417 32.42 45.8917 32.42C34.9817 32.42 27.1917 42.97 27.1917 58.7C27.1917 73.31 34.1717 84.57 46.7417 84.57C50.8817 84.57 53.8417 83.94 56.4817 82.91V66.94C56.4817 64.23 55.0417 62.82 51.7917 62.75C50.9517 62.75 50.7417 61.79 50.7417 61.18Z" fill="url(#paint0_linear_48_10)"/>
<path d="M50.8817 3.69C49.7517 5 48.7617 5.42 47.0417 5C45.9417 4.72 45.3117 5.49 45.6617 5.7C47.7617 6.79 48.4617 8.27 47.1817 11.81C45.8417 15.75 42.1417 16.03 40.7917 15C38.9717 13.62 38.7617 11.32 39.3917 8.97C39.9617 7.59 39.4717 6.21 38.1917 6.07C36.5817 5.93 35.8817 7.31 36.3717 8.62C36.6517 9.39 37.1417 9.74 37.2817 10.7C37.5617 12.99 35.4617 15.69 32.8917 16.1C29.9617 16.59 27.2917 13.83 25.7917 9.74C26.8817 9.95 28.0917 10.09 29.0017 9.88C29.9617 9.67 29.8917 6.42 29.5417 6C28.6517 5.31 25.9817 5.87 25.1417 7.18C24.1817 3.37 22.8417 1.79 18.9617 0C17.6217 4.17 18.2517 6 19.7917 8.9C18.1117 8.69 16.2917 9.95 16.1517 11.19C16.0117 12.35 17.4817 13.41 18.4717 12.99C19.3717 12.64 20.1417 11.19 21.7517 10.98C23.6417 13.69 24.4817 17.14 22.4517 19.84C20.7017 22.27 17.2017 22.55 14.6917 20.39C13.7417 19.63 13.8117 18.8 13.3917 17.97C12.7517 16.73 11.0017 17.22 10.5817 17.91C9.88173 19.01 10.6517 20.39 11.8617 20.8C13.8917 21.57 15.3617 22.7 15.7817 24.73C16.3417 27.37 14.2417 29.64 11.9417 29.5C8.06172 29.22 5.72172 26.89 6.00172 24.59C6.14172 23.46 6.70172 23.19 6.35172 22.7C5.86172 22.13 4.77172 22.9 4.21172 23.8C3.37172 25.04 2.15172 24.9 0.691725 24.83C-0.338275 24.76 -0.0582753 25.59 0.501725 25.73C6.14172 28.43 13.2517 34.75 16.7517 37.81C23.4217 27.33 32.8617 23.19 43.2417 23.54C45.8117 23.4 47.1517 23.61 48.7617 24.03C49.1817 17.42 50.0717 10.22 51.2817 4.38C51.4917 3.42 51.4917 3 50.8817 3.69Z" fill="url(#paint1_linear_48_10)"/>
<defs>
<linearGradient id="paint0_linear_48_10" x1="17.1217" y1="58.28" x2="244.432" y2="58.28" gradientUnits="userSpaceOnUse">
<stop stop-color="#F11B56"/>
<stop offset="1" stop-color="#F02064"/>
</linearGradient>
<linearGradient id="paint1_linear_48_10" x1="0.390725" y1="18.22" x2="51.4917" y2="18.22" gradientUnits="userSpaceOnUse">
<stop stop-color="#F11B56"/>
<stop offset="1" stop-color="#F02064"/>
</linearGradient>
</defs>
</svg>
