<svg xmlns="http://www.w3.org/2000/svg" width="200" height="200" fill="none" viewBox="0 0 200 200">
<!-- SVG created with Arrow, by QuiverAI (https://quiver.ai) -->
  <path d="m105.8 195c33.71 0 56.12-17.85 65.59-41.78 5.37-13.75 3.78-29.17-2.52-35.91s-14.81-7.22-32.49-7.22c-5.44 0-10.76 0.48-15.04 0.66-9.58 0.37-17.08 6.56-17.08 17.31 0 9.95 6.17 15.56 17.63 15.56 3.62 0 5.51-0.21 8.62-0.65-3.65 6.97-10.38 10.97-19.62 10.97-13.92 0-26.85-11.18-26.85-29.53 0-16.25 11.78-30.99 27.72-30.99 14.41 0 22.01 10 33.01 10.3 11.36 0.32 22.71-10.47 22.71-21.27 0-20.34-19.13-40.41-58.84-40.41-2.85 0-5.72 0.13-8.62 0.4 0.55-3.05-0.24-5.29-2.6-6.19l-5.42-22.38c2.13-1.26 3.12-3.54 2.56-5.98-0.8-3.45-3.3-4.1-5.3-3.98-3.72 0.22-4.92 2.89-4.76 5.68 0.12 2.08 1.13 3.67 2.51 4.7l-3.99 4.64-3.11-3.17c0.54-2.47-0.71-4.67-3.21-4.91-2.66-0.26-4.42 1.72-4.08 4.16 0.18 1.25 0.93 2.37 2.18 3.08l-1.03 2.74-13.44-3.79c0.71-2.11 0.43-4.91-1.05-6.61-2.2-2.59-7.42-2.56-9.58 0.99-2.1 3.59-1.09 8.61 3.81 9.04l-1.24 15.43-5.23-4.44c-0.8-1.75-3.4-2.34-5.33-1.64-2.38 0.91-3.39 4.35-1.89 6.42 0.74 1.03 1.77 1.58 2.91 1.84v5.2l-7.07-0.87c-0.91-3.44-3.56-5.02-6.52-4.39-3.5 0.8-4.34 5.11-3.46 7.65 1.01 3.02 3.98 3.69 6.99 2.92l17 16.81c-0.51 2.47 0.4 3.97 2.38 4.6-12.11 14.97-15.53 31.79-15.53 53.49 0 29.13 18.25 71.52 69.28 71.52z" fill="#680941"/>
  <path d="m106.4 192.4c37.46 0 56.6-21.98 63.55-42.22 4.41-12.78 2.78-26.48-3.09-32.12-6.21-6.03-14.17-6.36-30.16-6.36-6.1 0-9.83 0.33-14.65 0.61-9.18 0.54-14.84 6.15-14.84 15.49 0 8.68 5.55 13.25 15.98 13.25 4.51 0 7.06-0.45 11.67-1.01-3.8 10.13-12.71 16.5-24.44 16.5-15.63 0-29.17-12-29.17-32.14 0-17.8 12.15-34.2 30.5-34.2 13.27 0 20.89 9.75 32.11 10.88 10.79 1.13 21.1-9.32 21.1-18.65 0-18.02-17.74-38.48-57.07-38.48-26.79 0-47.8 10.26-59.69 29.49-8.29 13.74-10.48 26.16-10.48 49.64 0 25.8 16.09 69.32 68.68 69.32z" fill="url(#paint0_radial_291_10246)"/>
  <path d="m47.16 113c-2.51-1.17 0.56-20.84 11.56-35.87 5.54-7.4 9.23-7.85 14-9.06 2.14-0.56 1.48 0.91-0.11 2.31-7.5 6.68-16.46 18.6-22.57 38.4-0.96 3.27-1.33 4.97-2.88 4.22z" fill="#FEFFFE" opacity=".2"/>
  <path d="m96.46 46.18c8.74-1.07 18.78-0.16 25.95 2.53 5.37 2.08 6.37 4.28 4.4 5.26-1.07 0.55-11.11-1.26-21.7-0.18-13.05 1.36-21.57 4.42-25.29 5.69-2.44 0.86-5.1-0.17-2.54-2.08 6.94-4.99 10.85-9.82 19.18-11.22z" fill="#FEFFFE" opacity=".2"/>
  <path d="m100.8 44.82c20.09-0.91 33.92 2.35 46.55 10.33 8.82 5.71 15.44 12.6 16.56 23.82 0.11 1.18-1.12 0-1.55-1.86-3.5-10.16-12.69-16.65-22.6-21.49-10.79-5.39-25.63-7.83-39.07-8.16-2.71-0.11-3.62-2.25 0.11-2.64z" fill="#FEFFFE" opacity=".2"/>
  <path d="m42.11 141.1c9.07 19.91 25.86 36.05 55.9 37.18 23.93 0.91 48.13-11.33 56.9-25.02 4.87-7.4 5.15-19.37 1.14-23.07-3.22-3.02-21.98-1.1-34.94-1.9-9.95-0.68-12.01-1.12-12.39-2.64-0.79 3.82-0.91 12.57 12.37 14.33 3.6 0.49 7.83 0 13.49-0.33-1.49 6.36-12.46 15.3-23.37 15.3-11.02 0-20.74-5.5-26.39-13-5.11-6.79-13.97-23.6-3.71-38.69 8.81-13.29 19.12-17.18 28.7-17.18 11.91 0 19.41 7.92 28.28 12.28-6.95-2.2-13.57-8.99-27.26-8.99-19.76 0-39.52 14.54-39.52 35.51 0 12.25 5.55 20.82 13.98 26.01 1.54 1.07 0.9 0.91-0.74 0.27-10.3-4.01-20.51-14.96-19.49-30.05 0.85-13.24 9.3-28.28 23.33-33.88-8.33 0-24.58 2.52-28.9-1.37-3.39 4.11-10.41 18.1-12.33 25.24-1.75 6.63-1.32 22.14-5.05 30z" fill="#A8195B" opacity=".2"/>
  <path d="m110.6 161.2c6.51 1.53 15.22-2.91 22.61-8.17 2.8-2.08 2.69-3.66 1.62-3.94-1.49-0.44-2.73 1.91-5.63 4.49-4.32 3.88-9.92 7.43-17.48 7.44-1.92-0.07-2.82-0.29-1.12 0.18z" fill="#FEFFFE" opacity=".6"/>
  <path d="m128.5 117.9c-1.42-2.19 5.31-3 10.63-2.89 7.61-0.16 13.71 0 14.4 2.63 0.8 2.69-4.64 2.8-10.4 2.91-5.55 0.11-13.5-0.8-14.63-2.65z" fill="#FEFFFE" opacity=".6"/>
  <path d="m117.7 119.6c-0.63-1.81 2.12-2.72 3.98-2.72 2.23 0 3.08 1.13 2.51 2.26-0.8 1.53-5.69 2.49-6.49 0.46z" fill="#FEFFFE" opacity=".6"/>
  <path d="m117.6 69.05c0-6.09 4.27-9.29 9.28-9.29 5.26 0 8.58 4.98 8.58 9.29 0 4.98-4.22 8.76-8.49 8.76-5.22 0-9.37-3.62-9.37-8.76z" fill="#680941"/>
  <path d="m76.64 71.71c0-6.09 4.27-8.85 8.95-8.85 5.27 0 8.59 4.53 8.59 8.85 0 5.44-4.16 8.75-8.7 8.75-5.06 0-8.84-3.61-8.84-8.75z" fill="#680941"/>
  <path d="m121 66.62c0-2.48 1.91-3.61 3.77-3.61 2.08 0 3.31 1.95 3.31 3.61 0 2.13-1.86 3.48-3.34 3.48-2.14 0-3.74-1.43-3.74-3.48z" fill="#FEFFFE"/>
  <path d="m80.06 69.23c0-2.48 1.55-3.1 3.3-3.1 2.14 0 3.37 1.6 3.37 3.1 0 2.03-1.49 3.25-3.09 3.25-2.03 0-3.58-1.2-3.58-3.25z" fill="#FEFFFE"/>
  <path d="m128.8 73.11c0-1.42 1.06-2.12 2.12-2.12 1.24 0 1.98 1.12 1.98 2.12 0 1.36-1.18 2.14-2.04 2.14-1.34 0-2.06-0.91-2.06-2.14z" fill="#FEFFFE"/>
  <path d="m87.42 75.53c0-1.42 1.07-1.86 1.97-1.86 1.07 0 1.76 1.01 1.76 1.86 0 1.22-1.13 1.91-1.87 1.91-1.13 0-1.86-0.81-1.86-1.91z" fill="#FEFFFE"/>
  <path d="m129.1 81.69c-1.34-2.58 1.73-3.38 4.39-3.6 4.46-0.39 7.36 0.22 8.04 2.36 0.85 2.58-3.07 4.06-6.38 4.17-3 0.11-5.33-1.12-6.05-2.93z" fill="#FFB0CC" opacity=".6"/>
  <path d="m71.91 86.15c-0.69-2.91 3-3.13 5.02-3.13 4.01-0.16 7.23 0.11 7.79 2.36 0.69 2.75-3.67 3.71-6.37 3.82-3.01 0.11-5.91-0.8-6.44-3.05z" fill="#FFB0CC" opacity=".6"/>
  <path d="m112.2 77.11c-1.3 2.02-3.16 3.04-5.6 3.04-2.14 0-3.89-1.4-5.28-2.63-1.01-0.91-2.82 0.31-1.91 1.53 1.8 2.48 3.94 3.88 6.9 3.88 3.49 0 5.82-2.2 7.57-4.84 0.86-1.36-0.84-2.27-1.68-0.98z" fill="#680941"/>
  <path d="m54.9 64.11-19.87-18.72 13.79 1.36c4.9 0.49 6.28-1.93 6.39-5.42l0.58-21.88 2.44-0.8 16.54 9.45c4.27 2.58 6.51 0.62 8.53-2.7l7.12-12.24 6.73 23.94c1.01 2.85 1.01 4.56-1.13 6.81-7.84 8.23-24.84 16.8-41.12 20.2z" fill="url(#paint1_radial_291_10246)"/>
  <path d="m54.16 63.01c9.94-4.2 28.86-16 40.45-24.8 2.5-1.7 5.1 0.32 4.53 3.82-0.91 5.25-20.83 16.15-42.53 26.73-4.37 2.13-6.46-2.29-4.49-4.58 0.63-0.7 1.17-0.81 2.04-1.17z" fill="#680941"/>
  <path d="m53.93 64.76c11.35-4.54 27.9-14.54 40.52-24.86 2.45-1.75 3.78-0.44 2.93 1.81-1.65 4.64-21.99 16.08-42.07 25.3-2.56 1.22-3.13-1.36-1.38-2.25z" fill="url(#paint2_linear_291_10246)"/>
  <path d="m57.21 23.82-0.54 13c-0.11 1.97 1.28 1.97 1.44 0.27 0.43-3.16 0.6-9.2 0.6-13.03 0-1.8-1.39-2.02-1.5-0.24z" fill="#FEFFFE" fill-opacity=".8"/>
  <path d="m65.51 34.74-0.42 7.87c-0.06 1.01 0.22 1.3 0.97 1.84l5.44 3.26c0.91 0.55 1.65-0.05 1.71-1.06l0.48-7.81c-1.65-1.08-6.22-3.83-6.97-4.37-0.6-0.44-1.1-0.6-1.21 0.27z" fill="#680941"/>
  <path d="m66.21 36.06-0.16 6.15c-0.05 0.65 0.11 0.87 0.68 1.25l4.51 2.64c0.63 0.44 1.01 0.11 0.95-0.8l0.28-5.6-5.05-3.36c-0.69-0.59-1.16-0.86-1.21-0.28z" fill="url(#paint3_linear_291_10246)"/>
  <path d="m54.33 10.37c-5.42 1.36-5.7 9.65 0.6 9.65 5.77 0 6.78-4.11 5.18-7.84-1.01-2.25-3.56-2.47-5.78-1.81z" fill="#680941"/>
  <path d="m53.71 12.95c-2.5 1.81-1.49 5.41 0.83 5.36 3.16-0.06 3.22-2.59 2.79-4.56-0.58-1.7-2.28-1.64-3.62-0.8z" fill="url(#paint4_linear_291_10246)"/>
  <path d="m29.62 39.12c-3.54 2.03-3.43 8.97 1.57 8.97 4.22 0 5.23-3.02 4.33-6.38-0.69-2.59-3.49-3.77-5.9-2.59z" fill="#680941"/>
  <path d="m30.2 40.65c-1.92 1.17-1.59 5.7 1.11 5.7 2.45 0 2.98-1.64 2.55-3.89-0.37-1.7-2.23-2.61-3.66-1.81z" fill="url(#paint5_linear_291_10246)"/>
  <path d="m88.88 6.21c-2.96 1.28-3.12 8.62 1.2 7.71 3.63-0.8 4.15-3.17 3.14-6.19-0.74-2.02-2.76-2.3-4.34-1.52z" fill="#680941"/>
  <path d="m88.91 7.62c-1.49 1.01-1.06 5 1.02 4.89 2.18-0.11 2.5-1.76 2.18-3.66-0.33-1.53-1.92-2.02-3.2-1.23z" fill="url(#paint6_linear_291_10246)"/>
  <defs>
    <radialGradient id="paint0_radial_291_10246" cx="0" cy="0" r="1" gradientTransform="translate(97.65 121.4) scale(93.86 93.04)" gradientUnits="userSpaceOnUse">
      <stop stop-color="#E71658" offset="0"/>
      <stop stop-color="#E61659" offset=".44"/>
      <stop stop-color="#DE175B" offset=".69"/>
      <stop stop-color="#D0195F" offset=".89"/>
      <stop stop-color="#C61B62" offset="1"/>
    </radialGradient>
    <radialGradient id="paint1_radial_291_10246" cx="0" cy="0" r="1" gradientTransform="translate(70.88 31.76) scale(33.98 33.65)" gradientUnits="userSpaceOnUse">
      <stop stop-color="#A50050" offset="0"/>
      <stop stop-color="#B00A57" offset=".33"/>
      <stop stop-color="#B9115D" offset=".72"/>
      <stop stop-color="#BD145F" offset="1"/>
    </radialGradient>
    <linearGradient id="paint2_linear_291_10246" x1="52.96" x2="97.91" y1="53.28" y2="53.28" gradientUnits="userSpaceOnUse">
      <stop stop-color="#9E641F" offset="0"/>
      <stop stop-color="#F6D961" offset=".21"/>
      <stop stop-color="#9E641F" offset=".51"/>
      <stop stop-color="#F6D961" offset=".81"/>
      <stop stop-color="#9E641F" offset="1"/>
    </linearGradient>
    <linearGradient id="paint3_linear_291_10246" x1="68.3" x2="70.55" y1="35.83" y2="46.05" gradientUnits="userSpaceOnUse">
      <stop stop-color="#F8E69E" offset="0"/>
      <stop stop-color="#C67521" offset="1"/>
    </linearGradient>
    <linearGradient id="paint4_linear_291_10246" x1="52.6" x2="57.91" y1="15.18" y2="15.18" gradientUnits="userSpaceOnUse">
      <stop stop-color="#F8E69E" offset="0"/>
      <stop stop-color="#C67521" offset="1"/>
    </linearGradient>
    <linearGradient id="paint5_linear_291_10246" x1="29.12" x2="34.11" y1="43.17" y2="43.17" gradientUnits="userSpaceOnUse">
      <stop stop-color="#F8E69E" offset="0"/>
      <stop stop-color="#C67521" offset="1"/>
    </linearGradient>
    <linearGradient id="paint6_linear_291_10246" x1="87.87" x2="92.24" y1="9.648" y2="9.648" gradientUnits="userSpaceOnUse">
      <stop stop-color="#F8E69E" offset="0"/>
      <stop stop-color="#C67521" offset="1"/>
    </linearGradient>
  </defs>
</svg>