<svg xmlns="http://www.w3.org/2000/svg" width="250" height="250" fill="none" viewBox="0 0 250 250">
  <path d="m241.1 47.4c-6.19-9.48-18.56-9.97-36.02-7.69-1.92 0.27-2.92 1.19-2.62 3.17 0.28 1.77 1.74 2.34 3.32 2.06 11.94-2.23 25-2.88 30.59 4.15 8.07 10.31-2.23 29-27.25 55.51-26.2 27.93-56.16 50.2-81.01 65.13-33.39 20.26-60.59 34.19-90.51 35.49-10.39 0.46-17.49-0.71-21.56-4.41-12.19-11.1 3.51-34.89 31.61-62.75l0.46-0.46c0.17 1.06 0.54 2.52 0.76 3.62l0.81-0.82c-18.92 18.49-33.98 35.53-29.88 49.79 2.32 7.42 10.27 8.74 19.44 8.13l4.52-0.29c1.84-0.12 2.39-1.21 2.26-2.67-0.14-1.62-1.37-2.2-2.71-2.04-8.26 0.89-15.22 0.41-17.02-4.2-3.03-8.09 8.83-23.35 23.63-38.01l1.49-1.5-1.01-4.44-2.53 2.55c-20.28 20.27-30.14 33.69-27.65 43.36 1.9 7.63 10.76 9.1 18.28 8.53l5.26-0.39c2.44-0.21 3.32-1.35 3.1-3.16-0.19-1.48-1.44-2.47-3.15-2.25-6.49 0.82-14.71 0.4-16.78-3.93-3.32-7.09 6.67-21 23.72-38.69 4.65 12.59 12.56 23.87 23.45 32.15l3.78-0.85c-16.88-13.07-26.47-32.76-26.47-57.41 0-38.04 30.81-73.6 73.47-73.6 31.2 0 58.12 18.53 69.42 48.35l3.42-3.19c-5.36-14.36-13.25-25.48-24.99-33.67l3.02 0.43c17.22-7.66 39.11-12.24 45.92-6.49 6.7 5.65-2.5 20.72-20.56 39.55l-4.11 4.05-3.57 3.45-0.99 0.96c-16.03 15.89-39.97 34.83-64.96 50.16-16.2 10.04-30.48 18.74-46.77 26.54l-3.26 1.56-3.85 1.81c-2.7 1.17-4.79 2.09-8.32 3.44-1.57 0.63-2.1 1.93-1.47 3.66 0.63 1.67 2.12 1.56 3.61 0.98 19.54-7.68 36.65-17.01 55.64-28.46 24.34-14.5 49.9-32.7 70.01-52.22l4.65-4.47 4.06-4.1c19.82-20.63 31.03-36.74 25.6-47.43-6.47-12.67-27.38-7.68-47.25-0.17l-7.9 3.23-7.08-1.94c6.95-3.38 12.05-5.35 18.57-7.52 1.75-0.58 2.16-1.47 1.94-2.93-0.29-1.62-1.85-1.81-3.19-1.4-8.3 2.69-14.32 5.22-22.99 9.16-10.7-5.53-20.78-8.17-35.52-8.17-43.09 0-76.73 35.96-76.73 78.43 0 3.19 0.02 5.83 0.24 7.73l-1.34 1.35c-29.93 29.6-44.02 50.73-38.54 64.53 3.68 9.38 12.47 11.81 24.96 11.25 17.37-0.84 35.57-6.23 57.31-16.05 11.05 5.75 21.34 7.83 34.82 7.83 41.52 0 75.3-34.75 76.8-76.58l-0.38-8.38 5.51-5.73c21.19-22.33 43.36-49.17 34.49-63.63zm-44.52 73.87c0.72 36.59-29.52 75.43-72.62 75.43-10.7 0-20.06-1.79-27.55-6.09 26.74-13.43 59.65-34.79 88.42-59.89l11.75-9.45z" fill="url(#paint0_linear_223_1426)"/>
  <path d="m193.4 47.96c2.2 0 2.76-1.28 2.39-2.9-0.39-1.62-1.72-2.17-3.13-1.72-1.56 0.53-2.09 1.98-1.46 3.37 0.49 0.92 1.19 1.25 2.2 1.25z" fill="url(#paint1_linear_223_1426)"/>
  <path d="m54.71 191.2c-1.8 0.36-2.5 1.56-2.1 3.07 0.43 1.51 1.69 2.09 3.15 1.74 1.49-0.38 1.93-1.74 1.63-3.14-0.38-1.31-1.52-1.94-2.68-1.67z" fill="url(#paint2_linear_223_1426)"/>
  <defs>
    <linearGradient id="paint0_linear_223_1426" x1="7" x2="242.9" y1="124.5" y2="124.5" gradientUnits="userSpaceOnUse">
      <stop stop-color="#E71A57" offset="0"/>
      <stop stop-color="#E52856" offset="1"/>
    </linearGradient>
    <linearGradient id="paint1_linear_223_1426" x1="191.6" x2="195.6" y1="45.51" y2="45.51" gradientUnits="userSpaceOnUse">
      <stop stop-color="#E71A57" offset="0"/>
      <stop stop-color="#E52856" offset="1"/>
    </linearGradient>
    <linearGradient id="paint2_linear_223_1426" x1="52.49" x2="57.08" y1="193.7" y2="193.7" gradientUnits="userSpaceOnUse">
      <stop stop-color="#EB6F92" offset="0"/>
      <stop stop-color="#EC829E" offset="1"/>
    </linearGradient>
  </defs>
</svg>
