<svg xmlns="http://www.w3.org/2000/svg" width="250" height="250" fill="none" viewBox="0 0 250 250">
<!-- SVG created with Arrow, by QuiverAI (https://quiver.ai) -->
  <path d="m125.1 82.12c-25.44 0-45.73 20.57-45.73 44.04 0 10.49 3.79 20.25 10.56 27.77-2.81 0.67-0.85 2.96 0.78 4.42 8.41 7.66 16.46 11.68 33.48 11.68 24.77 0 45.08-20.96 45.08-44.94 0-22.63-17.77-42.97-44.17-42.97z" fill="url(#paint0_radial_2842_133970)" opacity=".4"/>
  <path d="m124.3 80.17c-25.05 0-44.42 20.79-44.42 44.92 0 23.57 18.9 44.38 44.42 44.38 24.63 0 44.94-20.4 44.94-44.38 0-22.63-16.96-44.92-44.94-44.92z" fill="url(#paint1_radial_2842_133970)"/>
  <path d="m149.6 86.59c8.13 7.99 9.48 16.19 7.05 29.52-3.98 21.9-22.78 37.51-44.75 37.51-10.07 0-18.71-2.47-25.92-7.73 7.79 13.6 19.78 23.58 38.18 23.58 24.76 0 45.07-20.4 45.07-44.38 0-16.39-9.37-31.3-19.63-38.5z" fill="url(#paint2_linear_2842_133970)" opacity=".28"/>
  <path d="m67.28 169.1c-13.42 0-22.13-3.29-25.56-9.92-6.76-13.39 13.67-31.45 39.57-46.4l1.15 1.85c-22.32 12.34-43.56 29.82-38.66 43.46 5.4 15.07 42.65 9.84 65.04 3.75 25-7.05 47.1-15.9 68.57-32.31 1.82-1.35 3.6-2.65 5.35-3.94l1.57 1.24c-21.84 17.1-48.11 29.18-74.59 37.28-10.43 3.02-28 4.99-42.44 4.99z" fill="url(#paint3_linear_2842_133970)"/>
  <path d="m195.5 115.6-1.35-1.3c11.02-11.28 14.6-19.09 12.23-24.43-4.63-10.66-26.23-10.71-59.2-3.03l-1.37-1.28c27.05-6.4 54.1-8.78 61.84 3.44 5.28 8.11-0.75 16.96-12.15 26.6z" fill="url(#paint4_linear_2842_133970)"/>
  <path d="m189.6 105.2 0.31 4.35c0.38 5.25 3.38 8.94 8.65 9.52l4.49 0.49-4.4 1.02c-5.13 1.21-7.89 4.94-8.22 9.86l-0.43 3.65-0.64-4.97c-0.74-4.82-4.33-7.67-9.13-8.79l-4-0.93 4.54-0.92c5.68-1.16 8.28-5.37 8.58-10.54l0.25-2.74z" fill="url(#paint5_radial_2842_133970)"/>
  <defs>
    <radialGradient id="paint0_radial_2842_133970" cx="0" cy="0" r="1" gradientTransform="translate(124.4 126.5) scale(47.98 46.77)" gradientUnits="userSpaceOnUse">
      <stop stop-color="#52000A" offset="0"/>
      <stop stop-color="#52000A" stop-opacity=".03" offset="1"/>
    </radialGradient>
    <radialGradient id="paint1_radial_2842_133970" cx="0" cy="0" r="1" gradientTransform="translate(98.31 94.86) scale(64.22 62.68)" gradientUnits="userSpaceOnUse">
      <stop stop-color="#FDD4C6" offset="0"/>
      <stop stop-color="#F0899E" offset=".649"/>
      <stop stop-color="#CB6279" offset=".97"/>
    </radialGradient>
    <linearGradient id="paint2_linear_2842_133970" x1="96.47" x2="157" y1="90.68" y2="167.1" gradientUnits="userSpaceOnUse">
      <stop stop-color="#8A3640" offset="0"/>
      <stop stop-color="#8A3640" stop-opacity=".03" offset="1"/>
    </linearGradient>
    <linearGradient id="paint3_linear_2842_133970" x1="40.97" x2="184.3" y1="126.5" y2="126.5" gradientUnits="userSpaceOnUse">
      <stop stop-color="#E9A5A9" offset="0"/>
      <stop stop-color="#F9C4C7" offset=".51"/>
      <stop stop-color="#FFDADD" offset="1"/>
    </linearGradient>
    <linearGradient id="paint4_linear_2842_133970" x1="145.8" x2="208.1" y1="95.19" y2="95.19" gradientUnits="userSpaceOnUse">
      <stop stop-color="#B58A8F" offset="0"/>
      <stop stop-color="#D5A9AE" offset=".51"/>
      <stop stop-color="#F9D0D4" offset="1"/>
    </linearGradient>
    <radialGradient id="paint5_radial_2842_133970" cx="0" cy="0" r="1" gradientTransform="translate(189.6 119.6) scale(13.97 13.56)" gradientUnits="userSpaceOnUse">
      <stop stop-color="#FFDFDF" offset="0"/>
      <stop stop-color="#FFDFDF" stop-opacity=".25" offset="1"/>
    </radialGradient>
  </defs>
</svg>