<svg width="228" height="231" viewBox="0 0 228 231" fill="none" xmlns="http://www.w3.org/2000/svg" style="background:transparent">
<path d="M113.333 9.1889L88.753 22.9389L62.233 26.5189L45.833 47.8889L23.163 62.3889L20.593 88.6889L9.91297 110.059L7.34297 108.309L6.47297 113.499L1.20297 114.729L7.34297 117.039L7.86297 121.299L11.543 116.429L21.203 139.089L19.673 148.749C8.70297 166.129 2.67297 182.139 6.93297 191.639L9.25297 194.569L5.47297 199.689L12.823 198.039C19.263 203.329 32.783 202.859 47.683 198.599L56.583 196.539L61.363 203.219L84.933 205.949L112.983 218.569L141.033 205.949L164.913 202.709L178.643 182.319L202.513 166.419L205.883 140.219L217.553 118.689L219.673 120.589L221.393 114.729L226.123 114.119L220.033 111.859L219.213 107.599L216.383 111.909L206.413 89.7089L206.003 83.2789C217.773 65.1789 224.673 48.5889 219.933 38.7289L220.353 31.7189L216.073 33.0089C207.073 26.9789 193.243 27.4489 172.293 34.7889L164.373 26.0989L138.113 22.2089L113.333 9.1889ZM198.473 108.779L203.093 114.119L197.403 117.609L198.473 108.779ZM199.803 56.9489L198.473 58.4389L181.363 47.4689C193.453 43.1189 201.073 45.1789 199.803 56.9489Z" fill="url(#paint0_linear_1_59)" stroke="#780E30" stroke-width="0.7" stroke-miterlimit="10"/>
<path d="M212.833 32.6489L209.093 39.7689L215.853 39.2989L219.683 31.7789L212.833 32.6489Z" fill="#FFD9E9" stroke="#780E30" stroke-width="0.5" stroke-miterlimit="10"/>
<path d="M8.41297 192.079L6.85297 198.899L12.593 197.659L13.713 192.079H8.41297Z" fill="#FFD9E9" stroke="#780E30" stroke-width="0.5" stroke-miterlimit="10"/>
<path d="M113.333 0.78891L111.113 6.80891L106.273 7.27891L112.303 10.2089L113.323 15.1289L115.543 8.60891L120.383 7.27891L115.033 6.45891L113.333 0.78891Z" fill="#FFC2DC" stroke="#780E30" stroke-width="0.5" stroke-miterlimit="10"/>
<path d="M113.333 199.479L108.873 205.239L113.333 211.509L117.643 205.239L113.333 199.479Z" fill="#FF94C2" stroke="#780E30" stroke-width="0.5" stroke-miterlimit="10"/>
<path d="M113.333 213.679L111.273 218.639L106.823 220.079L112.563 221.729L113.333 228.749L115.183 221.169L119.923 219.359L115.083 217.869L113.333 213.679Z" fill="#FFC2DC" stroke="#780E30" stroke-width="0.5" stroke-miterlimit="10"/>
<path d="M7.57297 108.879L6.75297 113.909L1.42297 114.579L7.41297 116.379L7.98297 121.099L10.643 116.479L15.483 114.679L10.743 112.669L7.57297 108.879Z" fill="#FF94C2" stroke="#780E30" stroke-width="0.5" stroke-miterlimit="10"/>
<path d="M218.433 108.079L216.473 113.779L211.783 114.859L217.463 117.579L218.943 121.069L220.643 115.059L226.063 114.399L220.023 112.439L218.433 108.079Z" fill="#FF94C2" stroke="#780E30" stroke-width="0.5" stroke-miterlimit="10"/>
<path d="M21.473 112.179L16.533 114.809L21.423 118.709L22.243 118.919L27.543 114.749L22.243 110.699L21.473 112.179Z" fill="#FF94C2" stroke="#780E30" stroke-width="0.7" stroke-miterlimit="10"/>
<path d="M203.333 112.179L199.293 114.809L204.183 118.709L205.003 118.919L210.303 114.749L205.003 110.699L203.333 112.179Z" fill="#FF94C2" stroke="#780E30" stroke-width="0.7" stroke-miterlimit="10"/>
<path d="M113.333 19.1489L109.693 23.9089L113.273 29.0389L116.863 23.4489L113.333 19.1489Z" fill="#FF94C2" stroke="#780E30" stroke-width="0.7" stroke-miterlimit="10"/>
<path d="M112.933 19.1489L63.463 29.1089L42.323 56.0989L24.983 86.5889L21.713 114.479L25.763 140.679L37.893 166.079L50.023 180.689L56.623 183.829L65.523 181.869L51.043 165.969L37.313 139.769L34.233 128.899L35.463 106.079L40.713 83.7789L54.333 62.3489L73.403 44.1989L93.893 35.4989L112.363 32.5689L133.263 34.5289L151.473 41.4889L157.053 41.9089L168.423 48.8689L179.753 60.5889L189.783 77.1789L194.323 82.0389L197.643 74.1189L195.783 64.0089L180.733 48.0989L162.873 28.0189L135.213 23.1989L112.933 19.1489Z" fill="#FFF0F5" stroke="#780E30" stroke-width="0.7" stroke-miterlimit="10"/>
<path d="M173.933 38.8389C188.833 33.5489 203.273 32.5889 209.763 39.2489C222.723 52.6689 202.863 84.6789 168.753 118.589C134.653 152.499 91.953 179.939 68.793 186.459C51.483 191.689 33.893 196.229 21.893 191.079C11.883 186.719 13.363 172.489 22.263 154.389" stroke="#FFABCF" stroke-width="6" stroke-miterlimit="10"/>
<path d="M175.733 43.1689C190.223 37.8289 200.453 38.8889 203.383 45.3089C210.683 61.8489 181.443 97.2989 141.983 132.599C102.523 167.899 62.163 189.039 41.783 189.289C30.993 189.439 25.743 186.919 24.613 179.899C23.543 173.039 28.373 163.739 32.213 157.419" stroke="#F31D5B" stroke-width="3" stroke-miterlimit="10"/>
<path d="M113.233 29.5589C65.623 29.5589 28.443 67.5789 28.443 114.379C28.443 141.889 41.233 166.629 61.923 182.179L66.133 180.019C46.003 165.359 32.793 141.369 32.793 114.379C32.793 69.9389 68.483 34.3189 113.233 34.3189C147.343 34.3189 176.693 56.6789 188.313 87.7189L191.033 83.0189C177.823 52.4789 147.913 29.5589 113.233 29.5589Z" fill="#FF6E9F" stroke="#780E30" stroke-width="0.7" stroke-miterlimit="10"/>
<path d="M193.733 96.5789C195.013 102.339 195.723 108.349 195.723 114.509C195.723 160.679 158.653 198.019 112.953 198.019C99.423 198.019 86.733 194.639 75.463 188.919L70.923 191.219C83.463 198.129 97.543 201.819 112.953 201.819C160.773 201.819 198.703 162.399 198.703 114.509C198.703 107.639 197.773 100.919 196.173 94.5489L193.733 96.5789Z" fill="#FFD9E9" stroke="#780E30" stroke-width="0.7" stroke-miterlimit="10"/>
<path d="M199.833 87.1989L204.473 101.319L203.853 124.769L196.183 152.069L182.653 175.079L199.383 164.309L203.533 136.169L213.963 113.499L203.433 90.0489L199.833 87.1989Z" fill="#FFD9E9"/>
<path d="M112.933 182.779C151.533 182.779 181.413 147.369 181.413 115.179C181.413 81.0689 153.793 45.3589 111.693 45.3589C72.733 45.3589 45.313 80.0889 45.313 115.179C45.313 148.679 72.333 182.779 112.933 182.779Z" fill="url(#paint1_linear_1_59)" stroke="#780E30" stroke-width="0.7" stroke-miterlimit="10"/>
<path d="M136.833 50.0289L152.433 41.9589L155.363 43.3989L144.733 50.7989L142.723 52.3989L136.833 50.0289Z" fill="#E23368" stroke="#780E30" stroke-width="0.5" stroke-miterlimit="10"/>
<path d="M149.133 55.2189L162.473 49.3989L164.743 50.9989L153.313 58.0189L149.133 55.2189Z" fill="#E23368" stroke="#780E30" stroke-width="0.5" stroke-miterlimit="10"/>
<path d="M17.253 184.579L21.583 184.059L22.353 184.009L22.093 188.879L15.553 188.669L17.253 184.579Z" fill="#FF94C2" stroke="#780E30" stroke-width="0.7" stroke-miterlimit="10"/>
<defs>
<linearGradient id="paint0_linear_1_59" x1="113.633" y1="9.1889" x2="113.633" y2="202.779" gradientUnits="userSpaceOnUse">
<stop stop-color="#FFC2DC"/>
<stop offset="0.3333" stop-color="#FF6E9F"/>
<stop offset="0.6927" stop-color="#FFD9E9"/>
<stop offset="1" stop-color="#FF6E9F"/>
</linearGradient>
<linearGradient id="paint1_linear_1_59" x1="113.433" y1="45.3789" x2="113.433" y2="182.779" gradientUnits="userSpaceOnUse">
<stop stop-color="#FFC2DC"/>
<stop offset="1" stop-color="#C92060"/>
</linearGradient>
</defs>
</svg>

