<svg xmlns="http://www.w3.org/2000/svg" width="250" height="250" fill="none" viewBox="0 0 250 250">
<!-- SVG created with Arrow, by QuiverAI (https://quiver.ai) -->
  <path d="m123.8 202.9c-42.38 0-77.23-34.49-77.23-77.9 0-43.42 34.59-78.61 77.41-78.61 43 0 78.43 34.57 78.43 78.61 0 43.29-34.65 77.9-78.61 77.9zm0.18-155.3c-42.1 0-76.23 34.64-76.23 77.43 0 42.29 34.25 76.72 76.05 76.72 43.3 0 77.43-34.01 77.43-76.72 0-43.34-34.79-77.43-77.25-77.43z" fill="url(#paint0_linear_836_15707)"/>
  <path d="m124.7 171.1c26.06 0 46.19-22.15 46.19-46.07 0-24.92-20.2-46.66-46.29-46.66-25.64 0-45.88 21.3-45.88 46.32 0 24.48 20.17 46.41 45.98 46.41z" fill="url(#paint1_radial_836_15707)"/>

  <defs>
    <linearGradient id="paint0_linear_836_15707" x1="46.58" x2="202.4" y1="124.6" y2="124.6" gradientUnits="userSpaceOnUse">
      <stop stop-color="#D29BA7" offset="0"/>
      <stop stop-color="#D9A4B0" offset=".117"/>
      <stop stop-color="#E9B9C6" offset=".481"/>
      <stop stop-color="#F3C5D3" offset=".785"/>
      <stop stop-color="#F7C9D8" offset="1"/>
    </linearGradient>
    <radialGradient id="paint1_radial_836_15707" cx="0" cy="0" r="1" gradientTransform="translate(100.8 100.5) scale(74.11)" gradientUnits="userSpaceOnUse">
      <stop stop-color="#FDE7EA" offset="0"/>
      <stop stop-color="#F5A6C3" offset=".47"/>
      <stop stop-color="#F295B7" offset=".71"/>
      <stop stop-color="#D36582" stop-opacity=".25" offset="1"/>
    </radialGradient>

  </defs>
</svg>