<svg xmlns="http://www.w3.org/2000/svg" width="320" height="320" viewBox="0 0 320 320" fill="none">
  <defs>
    <radialGradient id="p3-shell" cx="0" cy="0" r="1" gradientUnits="userSpaceOnUse" gradientTransform="translate(144 118) rotate(50) scale(144 128)">
      <stop offset="0" stop-color="#FFFDFE"/>
      <stop offset="0.34" stop-color="#FFE5F1"/>
      <stop offset="0.72" stop-color="#FF9FCA"/>
      <stop offset="1" stop-color="#C53077"/>
    </radialGradient>
    <radialGradient id="p3-core" cx="0" cy="0" r="1" gradientUnits="userSpaceOnUse" gradientTransform="translate(162 168) rotate(90) scale(86)">
      <stop offset="0" stop-color="#FFFDFE"/>
      <stop offset="0.48" stop-color="#FFD9E9"/>
      <stop offset="1" stop-color="#F172AB"/>
    </radialGradient>
    <linearGradient id="p3-orbit" x1="55" y1="208" x2="264" y2="124" gradientUnits="userSpaceOnUse">
      <stop offset="0" stop-color="#FFD3E8"/>
      <stop offset="0.34" stop-color="#FFF9FD"/>
      <stop offset="0.66" stop-color="#FF9FCA"/>
      <stop offset="1" stop-color="#8B2253"/>
    </linearGradient>
    <linearGradient id="p3-frame" x1="91" y1="64" x2="225" y2="250" gradientUnits="userSpaceOnUse">
      <stop offset="0" stop-color="#FFF8FC"/>
      <stop offset="0.52" stop-color="#FFC8DF"/>
      <stop offset="1" stop-color="#E15596"/>
    </linearGradient>
    <filter id="p3-glow" x="28" y="30" width="270" height="264" filterUnits="userSpaceOnUse" color-interpolation-filters="sRGB">
      <feDropShadow dx="0" dy="0" stdDeviation="16" flood-color="#F58AB9" flood-opacity="0.24"/>
      <feDropShadow dx="0" dy="18" stdDeviation="18" flood-color="#6E2341" flood-opacity="0.18"/>
    </filter>
    <clipPath id="p3-clip">
      <circle cx="160" cy="168" r="76"/>
    </clipPath>
  </defs>

  <g opacity="0.48">
    <circle cx="80" cy="88" r="8" fill="#FFD7EA"/>
    <circle cx="243" cy="82" r="7" fill="#FFBEDA"/>
    <circle cx="247" cy="235" r="10" fill="#FFC6DE"/>
  </g>

  <g filter="url(#p3-glow)">
    <path d="M72 206C98 187 126 176 159 174C192 172 223 179 251 196" stroke="url(#p3-orbit)" stroke-width="12" stroke-linecap="round"/>
    <path d="M84 207C105 193 131 185 160 184C189 184 214 189 239 201" stroke="#FFF9FD" stroke-width="3.6" stroke-linecap="round" opacity="0.92"/>

    <path d="M101 78L132 60" stroke="url(#p3-frame)" stroke-width="4.4" stroke-linecap="round"/>
    <path d="M188 60L220 79" stroke="url(#p3-frame)" stroke-width="4.4" stroke-linecap="round"/>
    <path d="M224 132L244 163" stroke="url(#p3-frame)" stroke-width="4.4" stroke-linecap="round"/>
    <path d="M243 174L223 205" stroke="url(#p3-frame)" stroke-width="4.4" stroke-linecap="round"/>
    <path d="M132 276L101 257" stroke="url(#p3-frame)" stroke-width="4.4" stroke-linecap="round"/>
    <path d="M188 276L219 257" stroke="url(#p3-frame)" stroke-width="4.4" stroke-linecap="round"/>
    <path d="M76 174L58 205" stroke="url(#p3-frame)" stroke-width="4.4" stroke-linecap="round"/>
    <path d="M58 163L76 132" stroke="url(#p3-frame)" stroke-width="4.4" stroke-linecap="round"/>

    <path d="M102 79L160 46L218 79V145L160 178L102 145V79Z" stroke="#6C2141" stroke-width="1.8" opacity="0.28"/>
    <path d="M102 190L160 156L218 190V256L160 289L102 256V190Z" stroke="#6C2141" stroke-width="1.8" opacity="0.18"/>

    <circle cx="160" cy="168" r="76" fill="url(#p3-shell)" stroke="#67213E" stroke-width="2"/>
    <g clip-path="url(#p3-clip)">
      <circle cx="160" cy="168" r="76" fill="url(#p3-core)"/>

      <path d="M96 181C122 167 146 161 172 160C197 160 220 165 233 174C229 193 216 208 196 218C173 230 143 231 117 220C103 210 97 196 96 181Z" fill="#C72B75" opacity="0.18"/>
      <path d="M109 103C133 93 162 93 190 99C205 102 219 110 230 121C204 117 179 122 154 132C131 141 115 156 100 175C95 150 98 123 109 103Z" fill="#FFF8FC" opacity="0.5"/>

      <path d="M114 113C130 120 147 123 167 123C187 122 205 117 219 109" stroke="#FFF9FD" stroke-width="3" stroke-linecap="round" opacity="0.68"/>
      <path d="M107 145C129 153 153 156 179 154C197 153 210 149 223 143" stroke="#FFF7FC" stroke-width="2.4" stroke-linecap="round" opacity="0.6"/>
      <path d="M116 193C131 188 145 186 163 186C179 186 194 188 208 193" stroke="#6C2141" stroke-width="1.8" stroke-linecap="round" opacity="0.24"/>

      <circle cx="160" cy="168" r="46" fill="none" stroke="#FFF8FC" stroke-width="2" opacity="0.34"/>
      <circle cx="160" cy="168" r="30" fill="none" stroke="#E45B9A" stroke-width="1.4" opacity="0.28"/>
      <path d="M160 92V244" stroke="#FFF8FC" stroke-width="1.6" opacity="0.16"/>
      <path d="M84 168H236" stroke="#FFF8FC" stroke-width="1.6" opacity="0.12"/>
      <path d="M106 114L214 222" stroke="#6C2141" stroke-width="1.1" opacity="0.14"/>
      <path d="M106 222L214 114" stroke="#6C2141" stroke-width="1.1" opacity="0.14"/>

      <circle cx="133" cy="132" r="18" fill="#FFF9FD" opacity="0.4"/>
      <circle cx="192" cy="196" r="13" fill="#FFC7DE" opacity="0.24"/>

      <path d="M133 150L160 135L187 150V180L160 195L133 180V150Z" fill="none" stroke="#6C2141" stroke-width="1.3" opacity="0.2"/>
      <path d="M160 135L160 195" stroke="#6C2141" stroke-width="1.2" opacity="0.18"/>
      <path d="M133 150L187 180" stroke="#6C2141" stroke-width="1.2" opacity="0.18"/>
      <path d="M187 150L133 180" stroke="#6C2141" stroke-width="1.2" opacity="0.18"/>
    </g>

    <circle cx="160" cy="53" r="9" fill="#FFF9FD" stroke="#67213E" stroke-width="1.6"/>
    <path d="M152 52H168" stroke="#E35A98" stroke-width="1.6" stroke-linecap="round"/>
    <path d="M160 44V60" stroke="#E35A98" stroke-width="1.6" stroke-linecap="round"/>

    <circle cx="250" cy="165" r="10" fill="#FFD2E7" stroke="#67213E" stroke-width="1.5"/>
    <circle cx="68" cy="165" r="10" fill="#FFD2E7" stroke="#67213E" stroke-width="1.5"/>
    <circle cx="160" cy="281" r="11" fill="#FFF8FC" stroke="#67213E" stroke-width="1.5"/>

    <path d="M225 93C239 107 248 124 252 141" stroke="#FFF8FC" stroke-width="2.2" stroke-linecap="round" opacity="0.68"/>
    <path d="M69 194C80 212 94 225 109 233" stroke="#FFD4E8" stroke-width="2.2" stroke-linecap="round" opacity="0.68"/>
  </g>

  <g stroke="#67213E" stroke-width="1.3" stroke-linecap="round">
    <path d="M88 64L94 70"/>
    <path d="M91 67L85 73"/>
    <path d="M228 62L234 68"/>
    <path d="M231 65L225 71"/>
    <path d="M228 248L234 254"/>
    <path d="M231 251L225 257"/>
  </g>
</svg>
