<svg width="190" height="175" viewBox="0 0 190 175" fill="none" xmlns="http://www.w3.org/2000/svg">
<path opacity="0.3" d="M189.405 87.5121L180.585 104.572L189.405 87.4321L180.905 71.4921L189.405 87.5121Z" fill="#FFC2DC"/>
<path opacity="0.8" d="M89.6054 6.97212C46.4854 6.97212 10.9654 41.9521 10.9654 85.8421C10.9654 129.732 45.5154 163.732 89.6054 163.732C133.695 163.732 168.245 129.732 168.245 85.8421C168.245 41.9521 132.725 6.97212 89.6054 6.97212ZM89.6054 158.772C50.4854 158.772 16.9554 126.062 16.9554 85.8721C16.9554 45.6921 50.4854 11.9921 89.6054 11.9921C128.725 11.9921 162.255 44.7021 162.255 84.8921C162.255 125.072 128.725 158.772 89.6054 158.772Z" fill="url(#paint0_linear_2_195)" stroke="#780E30" stroke-width="0.7" stroke-miterlimit="10"/>
<path opacity="0.8" d="M89.6054 15.7621C53.0054 15.7621 22.5154 47.3021 22.5154 84.9421C22.5154 122.582 52.4054 152.462 89.6054 152.462C126.805 152.462 156.695 122.132 156.695 84.4921C156.695 46.8521 126.205 15.7621 89.6054 15.7621ZM89.6054 148.062C54.8654 148.062 26.0254 119.012 26.0254 83.6421C26.0254 48.2721 54.8654 19.2221 89.6054 19.2221C124.345 19.2221 153.185 48.2721 153.185 83.6421C153.185 119.012 124.345 148.062 89.6054 148.062Z" fill="url(#paint1_linear_2_195)" stroke="#780E30" stroke-width="0.7" stroke-miterlimit="10"/>
<path opacity="0.8" d="M89.6054 25.5421C57.8754 25.5421 32.0154 53.7421 32.0154 85.7221C32.0154 117.692 57.3554 143.522 89.6054 143.522C121.855 143.522 147.195 116.972 147.195 85.0021C147.195 53.0221 121.335 25.5421 89.6054 25.5421ZM89.6054 139.842C60.5254 139.842 36.0754 114.692 36.0754 85.0221C36.0754 55.3421 60.5254 30.1921 89.6054 30.1921C118.685 30.1921 143.135 55.3421 143.135 85.0221C143.135 114.692 118.685 139.842 89.6054 139.842Z" fill="url(#paint2_linear_2_195)" stroke="#780E30" stroke-width="0.7" stroke-miterlimit="10"/>
<path d="M89.6054 0.632118L84.5254 8.27212H94.6854L89.6054 0.632118Z" fill="url(#paint3_linear_2_195)" stroke="#780E30" stroke-width="0.7" stroke-miterlimit="10"/>
<path d="M89.6054 13.5221L73.6654 28.2221H105.545L89.6054 13.5221Z" fill="url(#paint4_linear_2_195)" stroke="#780E30" stroke-width="0.7" stroke-miterlimit="10"/>
<path d="M89.6054 173.512L94.6854 165.872H84.5254L89.6054 173.512Z" fill="url(#paint5_linear_2_195)" stroke="#780E30" stroke-width="0.7" stroke-miterlimit="10"/>
<path d="M89.6054 160.112L102.225 145.652H76.9854L89.6054 160.112Z" fill="url(#paint6_linear_2_195)" stroke="#780E30" stroke-width="0.7" stroke-miterlimit="10"/>
<path d="M177.105 86.9521L168.815 81.3921V91.5721L177.105 86.9521Z" fill="url(#paint7_linear_2_195)" stroke="#780E30" stroke-width="0.7" stroke-miterlimit="10"/>
<path d="M162.705 86.9521L151.995 78.2221L148.485 81.7521V90.4821L152.555 93.6121L162.705 86.9521Z" fill="url(#paint8_linear_2_195)" stroke="#780E30" stroke-width="0.7" stroke-miterlimit="10"/>
<path d="M1.76538 86.9521L10.0554 91.9321V82.6921L1.76538 86.9521Z" fill="url(#paint9_linear_2_195)" stroke="#780E30" stroke-width="0.7" stroke-miterlimit="10"/>
<path d="M16.3954 86.9521L25.6254 96.6121L30.6954 92.2521V81.6321L27.1854 78.6221L16.3954 86.9521Z" fill="url(#paint10_linear_2_195)" stroke="#780E30" stroke-width="0.7" stroke-miterlimit="10"/>
<path d="M140.205 145.712L150.995 148.722L148.005 138.982L140.205 145.712Z" fill="url(#paint11_linear_2_195)" stroke="#780E30" stroke-width="0.7" stroke-miterlimit="10"/>
<path d="M123.305 137.012L139.645 137.972L140.205 120.162L134.225 125.152L123.305 137.012Z" fill="url(#paint12_linear_2_195)" stroke="#780E30" stroke-width="0.7" stroke-miterlimit="10"/>
<path d="M27.4254 25.4221L30.4154 36.0521L35.8354 33.5221L27.4254 25.4221Z" fill="url(#paint13_linear_2_195)" stroke="#780E30" stroke-width="0.7" stroke-miterlimit="10"/>
<path d="M38.3354 36.0521L38.8954 54.7821L55.2354 38.4421L38.3354 36.0521Z" fill="url(#paint14_linear_2_195)" stroke="#780E30" stroke-width="0.7" stroke-miterlimit="10"/>
<path opacity="0.8" d="M135.405 23.4921C159.365 14.9621 174.815 16.3221 179.275 26.0621C186.485 42.2721 167.145 68.8221 136.355 97.4221C100.355 131.232 61.5154 157.322 29.8554 156.842C18.2754 158.332 7.74538 156.962 2.81538 149.242C-6.55462 134.292 12.1254 109.222 36.3154 84.5321L37.5854 89.4021C19.3454 109.542 3.37538 130.952 9.97538 147.632C14.1554 153.572 24.3854 153.692 32.0954 152.802C60.0454 149.522 96.2754 126.622 131.795 93.4121C161.155 65.2221 176.245 42.7121 173.535 31.5621C170.385 21.3421 158.175 21.2221 141.755 25.9421L135.375 23.4921H135.405Z" fill="url(#paint15_linear_2_195)" stroke="#780E30" stroke-width="0.7" stroke-miterlimit="10"/>
<path opacity="0.8" d="M116.805 40.1221C134.375 32.6021 148.555 33.4421 153.025 41.4321C159.655 53.6621 143.815 74.8321 119.815 97.4221C91.8654 124.442 62.5154 137.422 49.7254 136.462C41.9854 137.422 33.0954 137.182 29.6654 132.732C23.0354 124.722 26.4654 115.782 38.6554 101.322L39.5754 104.572C32.3354 113.342 31.4554 122.072 35.4754 127.022C39.6554 130.992 46.8554 129.922 54.5654 127.472C70.4254 123.502 94.3854 108.542 117.125 86.4321C137.615 66.3021 146.725 53.5821 143.575 45.9421C140.415 40.4821 132.515 40.4821 122.065 43.9521L116.805 40.1221Z" fill="url(#paint16_linear_2_195)" stroke="#780E30" stroke-width="0.7" stroke-miterlimit="10"/>
<path d="M93.9054 1.03212L95.2554 2.42212L96.7154 1.15212L96.0054 3.22212L98.1354 4.47212L96.0054 4.11212L98.6554 6.22212L95.7354 4.83212L98.4954 5.94212L95.8454 4.99212L95.7354 6.73212L95.0954 4.51212L93.7454 4.23212L95.2554 3.39212L93.9054 1.03212Z" fill="#C92060"/>
<path d="M85.1654 1.03212L83.8054 2.42212L82.3454 1.15212L83.0554 3.22212L79.3454 4.47212L82.2654 4.11212L76.8254 6.22212L82.4254 4.83212L78.8354 5.94212L82.5454 4.99212L82.6654 6.73212L83.5354 4.51212L85.2454 4.23212L83.8054 3.39212L85.1654 1.03212Z" fill="#C92060"/>
<path d="M101.605 170.812L99.9354 169.212L98.2954 170.482L99.1354 168.412L96.6054 167.162L99.0954 167.522L97.0654 165.852L99.4554 166.812L98.6554 165.212L99.8154 166.922L101.685 167.202L99.9354 168.042L101.605 170.812Z" fill="#C92060"/>
<path d="M77.1854 169.512L78.8654 167.912L79.3454 166.352L79.9454 167.782L82.3454 167.062L80.4254 168.392L83.3354 169.232L81.0154 169.192L83.3354 172.192L80.5854 169.912L81.5354 171.112L80.2254 169.592L77.1854 169.512Z" fill="#C92060"/>
<path d="M138.405 153.612L139.765 152.222L138.565 150.872L140.325 151.472L141.595 149.642L141.115 151.752L143.365 150.042L141.995 152.222L146.315 152.192L142.885 152.592L145.415 153.032L142.765 152.872L143.085 154.372L141.715 152.832L138.405 153.612Z" fill="#C92060"/>
<path d="M152.105 144.912L153.385 143.202L152.105 141.812L153.865 142.532L155.575 140.412L154.815 142.802L156.295 143.202L154.615 143.442L155.455 145.272L153.985 143.762L152.105 144.912Z" fill="#C92060"/>
<path d="M153.305 139.712L154.575 138.002L153.745 136.332L155.055 137.172L156.415 135.982L155.455 138.002L156.295 138.912L154.855 138.432L153.305 139.712Z" fill="#C92060"/>
<path d="M170.405 99.6121L172.115 98.0921L171.045 96.3021L173.235 97.3721L175.545 95.5421L174.435 97.6921L177.105 97.9321L174.275 98.2521L175.345 98.8521L173.435 98.2521L170.405 99.6121Z" fill="#C92060"/>
<path d="M170.405 77.6721L172.075 76.5021L171.715 74.8321L172.995 76.2221L174.555 75.1421L173.475 76.9421L175.945 78.1121L173.475 77.6321L174.355 79.3421L172.635 77.8321L170.405 77.6721Z" fill="#C92060"/>
<path d="M147.405 30.9321L148.725 31.4421L149.475 30.1721L149.315 31.8021L151.075 32.4421L149.435 32.3221L150.315 33.7221L148.805 32.5221L147.445 33.7221L148.285 32.2021L147.405 30.9321Z" fill="#C92060"/>
<path d="M151.805 32.5221L153.365 33.5621L154.795 32.3621L154.115 34.1521L156.555 35.3221L154.235 34.8821L155.915 37.1321L153.525 35.4421L153.165 36.8921L152.925 34.9221L151.205 34.3121L152.965 33.8721L151.805 32.5221Z" fill="#C92060"/>
<path d="M155.705 36.2521L157.385 37.2521L158.975 35.8921L158.145 37.8221L159.695 38.6221L157.985 38.5421L158.585 40.7221L157.105 38.8621L155.385 39.0221L156.745 37.7321L155.705 36.2521Z" fill="#C92060"/>
<path d="M158.105 41.0421L159.295 42.1921L160.765 41.3121L159.895 42.8321L160.885 44.0321L159.295 43.4321L157.985 44.7521L158.665 42.9521L157.305 42.1921L158.105 41.0421Z" fill="#C92060"/>
<path d="M159.105 45.7421L160.065 46.5021L160.935 45.7421L160.455 46.9421L161.135 47.4221L160.065 47.2621L159.105 48.0221L159.665 46.8221L159.105 45.7421Z" fill="#C92060"/>
<path d="M4.61542 81.6321L6.71542 82.2321L7.31542 80.0221L7.63542 81.9921L9.06542 80.5421L8.22542 82.3921L9.57542 83.2121L7.59542 82.9321L4.61542 81.6321Z" fill="#C92060"/>
<path d="M3.01538 93.2121L5.25538 93.4921L5.72538 91.7721L6.08538 93.6521L7.83538 93.2521L6.47538 94.5521L8.62538 95.9521L6.20538 95.1121L6.04538 96.7821L5.17538 94.9121L3.01538 93.2121Z" fill="#C92060"/>
<path d="M23.6754 34.3121L25.5454 34.7221L25.7854 33.2021L26.3854 34.8421L27.4654 34.5221L26.3854 35.5221L27.1854 37.0121L25.6254 35.8021L23.8654 37.1321L24.9454 35.3221L23.6754 34.3121Z" fill="#C92060"/>
<path d="M35.2754 22.5321L36.9454 23.6921L38.3754 22.4921L37.7054 24.2921L38.5354 25.1021L37.2254 24.8221L36.3954 26.1821L36.6354 24.3321L35.2754 22.5321Z" fill="#C92060"/>
<path opacity="0.3" d="M161.805 86.5521L148.505 95.1921V89.1221L161.805 86.5521Z" fill="#E23368" stroke="#780E30" stroke-width="0.5" stroke-miterlimit="10"/>
<path opacity="0.3" d="M17.3954 86.7921L27.1854 92.7321L27.6654 88.2321L17.3954 86.7921Z" fill="#E23368" stroke="#780E30" stroke-width="0.5" stroke-miterlimit="10"/>
<path opacity="0.3" d="M89.8054 14.6421L96.7254 26.5821H83.5754L89.8054 14.6421Z" fill="#E23368" stroke="#780E30" stroke-width="0.5" stroke-miterlimit="10"/>
<path opacity="0.3" d="M89.6054 158.312L83.2554 147.372H95.2354L89.6054 158.312Z" fill="#E23368" stroke="#780E30" stroke-width="0.5" stroke-miterlimit="10"/>
<path opacity="0.3" d="M138.205 136.612L127.885 133.602L133.505 132.882L138.205 136.612Z" fill="#E23368" stroke="#780E30" stroke-width="0.5" stroke-miterlimit="10"/>
<path opacity="0.3" d="M40.5154 37.6421L47.9754 39.4821L41.9854 47.5021L40.5154 37.6421Z" fill="#E23368" stroke="#780E30" stroke-width="0.5" stroke-miterlimit="10"/>
<path opacity="0.3" d="M8.50543 146.012L11.5654 142.672L14.0354 144.622L10.8554 146.932L8.50543 146.012Z" fill="#E23368" stroke="#780E30" stroke-width="0.5" stroke-miterlimit="10"/>
<path opacity="0.3" d="M18.4354 134.112L20.6754 133.872L21.1554 131.812L21.9954 133.792L23.9154 133.552L22.1154 134.992L23.5954 136.822L21.3554 135.752L22.2354 138.722L20.4854 136.502L19.6254 137.102L20.6754 135.152L18.4354 134.112Z" fill="#C92060"/>
<path opacity="0.3" d="M18.3154 128.212L19.5854 127.972L19.6254 126.612L20.3454 127.852L21.1954 127.452L20.4454 128.572L21.1154 129.252L19.8254 128.892L18.9454 129.932L19.3454 128.452L18.3154 128.212Z" fill="#C92060"/>
<path opacity="0.3" d="M27.8254 141.112L28.7854 140.592L28.3854 139.752L29.3354 140.392L29.9754 139.592L29.6954 140.792L30.4154 141.192L29.2954 141.232L28.4254 142.192L28.5854 141.072L27.8254 141.112Z" fill="#C92060"/>
<path opacity="0.3" d="M35.7154 140.212L37.1054 139.252L36.5154 138.012L37.9354 138.972L38.3754 137.932L38.2154 139.612L37.5454 140.452L35.7154 140.212Z" fill="#C92060"/>
<path opacity="0.3" d="M54.1154 137.012L54.9154 137.332L55.5954 136.212L55.3554 137.492L56.2254 137.612L55.1154 137.852L54.1154 137.012Z" fill="#C92060"/>
<path d="M89.6054 33.2421C108.635 33.2421 127.165 48.3621 137.085 64.7021C129.725 77.3421 115.565 90.8821 102.545 102.222C86.6754 116.122 69.5854 124.642 60.1254 126.592C50.8454 123.582 36.8254 107.422 36.8254 84.7321C36.8254 58.5521 58.3154 33.2421 89.6054 33.2421Z" fill="url(#paint17_linear_2_195)" stroke="#780E30" stroke-width="0.3" stroke-miterlimit="10"/>
<defs>
<linearGradient id="paint0_linear_2_195" x1="10.5054" y1="85.3521" x2="168.705" y2="85.3521" gradientUnits="userSpaceOnUse">
<stop stop-color="#F31D5B"/>
<stop offset="0.5052" stop-color="#FF94C2"/>
<stop offset="1" stop-color="#FF76A5"/>
</linearGradient>
<linearGradient id="paint1_linear_2_195" x1="22.0554" y1="84.1121" x2="157.205" y2="84.1121" gradientUnits="userSpaceOnUse">
<stop stop-color="#F31D5B"/>
<stop offset="0.5052" stop-color="#FF94C2"/>
<stop offset="1" stop-color="#FF76A5"/>
</linearGradient>
<linearGradient id="paint2_linear_2_195" x1="31.5454" y1="84.5321" x2="147.705" y2="84.5321" gradientUnits="userSpaceOnUse">
<stop stop-color="#F31D5B"/>
<stop offset="0.5052" stop-color="#FF94C2"/>
<stop offset="1" stop-color="#FF76A5"/>
</linearGradient>
<linearGradient id="paint3_linear_2_195" x1="84.0454" y1="4.45212" x2="95.2054" y2="4.45212" gradientUnits="userSpaceOnUse">
<stop stop-color="#F31D5B"/>
<stop offset="0.5052" stop-color="#FF94C2"/>
<stop offset="1" stop-color="#FF76A5"/>
</linearGradient>
<linearGradient id="paint4_linear_2_195" x1="73.1854" y1="20.8721" x2="106.005" y2="20.8721" gradientUnits="userSpaceOnUse">
<stop stop-color="#F31D5B"/>
<stop offset="0.5052" stop-color="#FF94C2"/>
<stop offset="1" stop-color="#FF76A5"/>
</linearGradient>
<linearGradient id="paint5_linear_2_195" x1="84.0454" y1="169.712" x2="95.2054" y2="169.712" gradientUnits="userSpaceOnUse">
<stop stop-color="#F31D5B"/>
<stop offset="0.5052" stop-color="#FF94C2"/>
<stop offset="1" stop-color="#FF76A5"/>
</linearGradient>
<linearGradient id="paint6_linear_2_195" x1="76.4954" y1="152.912" x2="102.705" y2="152.912" gradientUnits="userSpaceOnUse">
<stop stop-color="#F31D5B"/>
<stop offset="0.5052" stop-color="#FF94C2"/>
<stop offset="1" stop-color="#FF76A5"/>
</linearGradient>
<linearGradient id="paint7_linear_2_195" x1="168.305" y1="86.5821" x2="176.405" y2="86.5821" gradientUnits="userSpaceOnUse">
<stop stop-color="#F31D5B"/>
<stop offset="0.5052" stop-color="#FF94C2"/>
<stop offset="1" stop-color="#FF76A5"/>
</linearGradient>
<linearGradient id="paint8_linear_2_195" x1="148.005" y1="85.9221" x2="163.205" y2="85.9221" gradientUnits="userSpaceOnUse">
<stop stop-color="#F31D5B"/>
<stop offset="0.5052" stop-color="#FF94C2"/>
<stop offset="1" stop-color="#FF76A5"/>
</linearGradient>
<linearGradient id="paint9_linear_2_195" x1="2.24538" y1="87.3121" x2="10.5354" y2="87.3121" gradientUnits="userSpaceOnUse">
<stop stop-color="#F31D5B"/>
<stop offset="0.5052" stop-color="#FF94C2"/>
<stop offset="1" stop-color="#FF76A5"/>
</linearGradient>
<linearGradient id="paint10_linear_2_195" x1="16.3954" y1="87.6121" x2="31.1754" y2="87.6121" gradientUnits="userSpaceOnUse">
<stop stop-color="#F31D5B"/>
<stop offset="0.5052" stop-color="#FF94C2"/>
<stop offset="1" stop-color="#FF76A5"/>
</linearGradient>
<linearGradient id="paint11_linear_2_195" x1="139.805" y1="143.812" x2="151.505" y2="143.812" gradientUnits="userSpaceOnUse">
<stop stop-color="#F31D5B"/>
<stop offset="0.5052" stop-color="#FF94C2"/>
<stop offset="1" stop-color="#FF76A5"/>
</linearGradient>
<linearGradient id="paint12_linear_2_195" x1="122.805" y1="129.112" x2="140.705" y2="129.112" gradientUnits="userSpaceOnUse">
<stop stop-color="#F31D5B"/>
<stop offset="0.5052" stop-color="#FF94C2"/>
<stop offset="1" stop-color="#FF76A5"/>
</linearGradient>
<linearGradient id="paint13_linear_2_195" x1="27.2654" y1="30.7321" x2="36.3154" y2="30.7321" gradientUnits="userSpaceOnUse">
<stop stop-color="#F31D5B"/>
<stop offset="0.5052" stop-color="#FF94C2"/>
<stop offset="1" stop-color="#FF76A5"/>
</linearGradient>
<linearGradient id="paint14_linear_2_195" x1="38.3354" y1="45.4221" x2="55.7154" y2="45.4221" gradientUnits="userSpaceOnUse">
<stop stop-color="#F31D5B"/>
<stop offset="0.5052" stop-color="#FF94C2"/>
<stop offset="1" stop-color="#FF76A5"/>
</linearGradient>
<linearGradient id="paint15_linear_2_195" x1="-0.164621" y1="86.8721" x2="179.805" y2="86.8721" gradientUnits="userSpaceOnUse">
<stop stop-color="#F31D5B"/>
<stop offset="0.5052" stop-color="#FFD9E9"/>
<stop offset="1" stop-color="#F31D5B"/>
</linearGradient>
<linearGradient id="paint16_linear_2_195" x1="26.0254" y1="87.5121" x2="154.905" y2="87.5121" gradientUnits="userSpaceOnUse">
<stop stop-color="#F31D5B"/>
<stop offset="0.5052" stop-color="#FF94C2"/>
<stop offset="1" stop-color="#FF76A5"/>
</linearGradient>
<linearGradient id="paint17_linear_2_195" x1="36.5054" y1="79.9221" x2="137.405" y2="79.9221" gradientUnits="userSpaceOnUse">
<stop stop-color="#FF94C2"/>
<stop offset="1" stop-color="#FFF0F5"/>
</linearGradient>
</defs>
</svg>

