<svg width="233" height="231" viewBox="0 0 233 231" fill="none" xmlns="http://www.w3.org/2000/svg">
<path d="M219.795 115.867C219.395 105.247 215.345 95.4466 202.445 84.8666C201.305 83.8766 200.705 82.9366 199.715 82.0366C210.525 66.9366 220.535 49.2066 217.555 39.6766C213.665 27.1466 204.935 27.2466 194.735 28.1966C185.555 29.0866 174.335 33.2666 163.685 38.8866C155.425 33.5666 147.475 30.0866 145.685 29.0866C137.725 18.4666 129.715 12.7866 119.325 11.9366L116.345 1.70662L112.005 11.0966V12.0366C101.455 13.2866 92.6954 19.8566 85.8654 28.9866C59.9454 37.8866 35.8354 60.4466 27.8254 85.8666C17.5254 94.3366 12.9454 101.817 12.0554 115.167L2.24536 115.867L11.6054 120.497C12.5954 129.887 18.5154 139.147 28.5154 147.617C29.5054 149.417 30.0054 150.467 30.7454 151.807C17.7954 170.367 8.82536 190.237 14.8354 201.057C17.7254 206.337 23.1354 208.527 30.3054 208.227C41.3054 208.527 57.9054 203.147 71.3354 196.977C75.3254 198.867 79.4254 200.617 83.7254 201.897C91.6754 212.127 99.0354 217.747 112.475 218.937L116.475 229.417L120.815 219.877C130.565 218.337 138.425 213.257 145.335 203.917C165.025 195.997 189.505 180.007 201.595 151.267C202.145 149.967 202.445 149.067 202.945 147.277C213.905 137.927 219.395 129.537 219.795 118.057L230.435 115.817L219.795 111.377V115.867ZM192.685 35.6066C201.545 36.8466 209.705 40.1766 210.605 48.1966C211.595 55.0766 207.625 63.5566 200.305 74.1866L197.325 68.5666C200.305 61.2466 201.255 53.2266 197.825 46.6666C193.785 40.3766 183.735 40.0766 173.335 42.2166L170.095 39.4866C176.525 36.3066 184.735 34.4666 192.685 35.6066ZM192.335 48.6066C198.225 53.6266 195.035 64.9466 190.745 72.6666L165.725 64.2966C163.635 58.7066 161.945 54.1266 160.405 50.2966L173.585 46.3666C179.865 44.6766 187.625 44.5766 192.335 48.6066ZM216.735 116.217C216.235 128.797 210.825 137.997 199.515 146.277C203.545 135.597 205.435 127.827 205.435 116.707C205.435 108.027 203.845 99.2366 201.005 90.0966C209.565 96.1666 216.335 104.047 216.735 116.217ZM14.8354 115.717C15.1354 103.807 21.6554 94.8766 29.3054 88.5066C26.0254 97.3666 24.7354 104.247 24.7354 114.777C24.7354 122.847 25.9254 130.967 28.5154 139.097C20.6554 132.367 15.0354 125.087 14.8354 115.717Z" fill="url(#paint0_radial_2_196)" stroke="#780E30" stroke-width="1.2" stroke-miterlimit="10"/>
<path d="M35.5053 82.3466C46.2553 56.3266 66.8353 40.3866 83.8553 34.7766C89.7453 25.8166 98.3053 13.6866 113.995 12.4966C128.105 11.3966 139.105 19.8666 150.805 38.7966C156.445 41.2766 161.775 44.1066 166.745 47.3766C175.905 43.2166 188.445 39.9366 195.715 46.2566C204.815 54.2866 196.215 70.2666 186.605 84.6766C188.395 89.6066 189.295 94.7366 189.585 99.9166L181.525 100.317C181.375 95.9766 180.285 91.6466 178.695 87.5166C174.755 82.3866 169.775 77.7966 164.085 74.0766C161.705 67.3966 158.815 60.3066 155.835 53.5866C151.695 47.5766 148.305 41.2266 144.415 35.4666C136.005 29.0966 115.085 26.3166 95.8853 29.2966C90.8053 30.4466 86.5153 32.0866 82.6153 35.3666C75.6953 41.9766 70.8153 52.2966 67.2253 65.1066C57.0853 69.1866 43.7953 74.5966 35.5053 82.3466Z" fill="#FFF0F5" stroke="#F31D5B" stroke-width="1.2" stroke-miterlimit="10"/>
<path d="M27.6953 115.767L36.9053 111.177H39.2853L42.2653 113.077L42.9153 116.217L39.7253 119.947L37.0053 120.147L27.6953 115.767Z" fill="#FFD9E9" stroke="#780E30" stroke-width="0.7" stroke-miterlimit="10"/>
<path d="M2.22534 115.767L10.0453 111.177H12.0353L20.7853 115.667L10.5453 120.347L2.22534 115.767Z" fill="#FFD9E9" stroke="#780E30" stroke-width="0.7" stroke-miterlimit="10"/>
<path d="M211.195 115.867L222.885 111.377L230.405 115.867L223.335 120.797L211.195 115.867Z" fill="#FFD9E9" stroke="#780E30" stroke-width="0.7" stroke-miterlimit="10"/>
<path d="M213.595 34.6766L211.205 33.2766L208.075 35.2666L209.265 37.6566L211.755 37.3566L213.595 34.6766Z" fill="#FFF0F5" stroke="#780E30" stroke-width="0.7" stroke-miterlimit="10"/>
<path d="M116.295 28.0566L120.285 36.8566L120.685 39.4966L117.695 42.6666L114.855 42.2666L112.475 38.9466L113.065 35.6166L116.295 28.0566Z" fill="#FFD9E9" stroke="#780E30" stroke-width="0.7" stroke-miterlimit="10"/>
<path d="M116.195 2.70662L120.385 9.06662L116.295 19.7866L112.045 9.06662L116.195 2.70662Z" fill="#FFF0F5" stroke="#780E30" stroke-width="0.7" stroke-miterlimit="10"/>
<path d="M183.695 116.667C183.695 150.677 156.975 184.287 116.105 184.287C77.8454 184.287 51.6154 155.297 47.9254 120.557C47.9254 93.1966 59.1654 61.4066 98.5854 48.7666C104.145 47.4266 109.525 47.2266 114.665 47.2266C150.485 47.2266 183.695 74.8966 183.695 116.667Z" fill="url(#paint1_radial_2_196)" stroke="#780E30" stroke-width="0.7" stroke-miterlimit="10"/>
<path d="M166.395 115.767C166.395 140.397 145.565 162.197 116.075 162.197C88.6153 162.197 69.0753 140.647 66.5853 116.907C66.5853 96.8166 76.7353 74.4366 104.165 65.9666C108.155 64.9766 112.055 64.8266 115.775 64.8266C141.555 64.8266 166.395 84.9166 166.395 115.767Z" fill="url(#paint2_radial_2_196)" stroke="#780E30" stroke-width="0.5" stroke-miterlimit="10"/>
<path d="M127.195 97.5666C127.855 97.5666 128.395 97.9166 128.395 98.3366C128.395 98.7666 127.855 99.1066 127.195 99.1066C126.525 99.1066 125.995 98.7666 125.995 98.3366C125.995 97.9166 126.525 97.5666 127.195 97.5666Z" fill="#FFC2DC"/>
<path d="M106.695 152.967C107.245 152.967 107.685 153.307 107.685 153.737C107.685 154.157 107.245 154.497 106.695 154.497C106.145 154.497 105.695 154.157 105.695 153.737C105.695 153.307 106.145 152.967 106.695 152.967Z" fill="#FFABCF"/>
<path d="M189.395 115.667L193.385 111.677L203.035 115.667L193.825 119.947L189.395 117.307V115.667Z" fill="#FFD9E9" stroke="#780E30" stroke-width="0.7" stroke-miterlimit="10"/>
<path d="M18.6953 200.267L19.7953 198.177L21.7853 198.077L22.7753 199.767L21.1853 201.757L19.1953 201.857L18.6953 200.267Z" fill="#FFF0F5" stroke="#780E30" stroke-width="0.7" stroke-miterlimit="10"/>
<path d="M116.195 205.267L112.045 194.247L113.045 191.167L115.345 189.177L117.635 189.577L120.125 192.137L120.325 194.247L116.195 205.267Z" fill="#FFD9E9" stroke="#780E30" stroke-width="0.7" stroke-miterlimit="10"/>
<path d="M116.195 211.167L120.185 220.327L116.195 228.447L112.145 220.377L116.195 211.167Z" fill="#FFD9E9" stroke="#780E30" stroke-width="0.7" stroke-miterlimit="10"/>
<path d="M32.0753 153.367C24.0153 164.647 15.5653 180.237 20.7853 195.077C24.0153 203.247 32.2253 204.347 39.7753 203.247C57.5853 200.457 74.7053 190.337 85.0053 183.747C82.1153 182.047 80.0253 180.257 77.8353 179.007C68.6753 183.047 54.8553 188.317 43.3053 186.327C31.8253 184.287 31.3253 173.367 37.9453 163.047C36.6553 160.617 34.1653 156.837 32.0753 153.367Z" fill="#FFF0F5" stroke="#F31D5B" stroke-width="1.2" stroke-miterlimit="10"/>
<path d="M48.9453 129.767L34.4153 148.157L37.5053 152.297L50.2353 137.257L48.9453 129.767Z" fill="#FFF0F5" stroke="#F31D5B" stroke-width="1.2" stroke-miterlimit="10"/>
<path d="M181.795 100.267C196.285 83.4666 211.075 62.3066 212.265 46.2066C212.765 38.4266 205.185 31.8166 195.785 31.8166C184.085 31.8166 168.755 38.2866 161.745 42.4066" stroke="#F31D5B" stroke-width="1.2" stroke-miterlimit="10"/>
<path d="M199.795 147.167C190.535 155.087 178.645 160.957 166.995 164.937C156.695 187.497 145.415 216.087 117.915 216.587C95.5654 216.587 85.1954 197.867 80.1254 191.047" stroke="#F31D5B" stroke-width="1.2" stroke-miterlimit="10"/>
<path d="M28.1953 144.467C38.6953 154.677 48.6453 162.297 65.4453 165.477C69.5253 172.927 70.7153 176.407 73.1053 179.887" stroke="#F31D5B" stroke-width="1.2" stroke-miterlimit="10"/>
<path d="M28.7853 88.2166C37.6953 79.9966 52.5853 72.3766 66.1853 67.9966" stroke="#F31D5B" stroke-width="1.2" stroke-miterlimit="10"/>
<path d="M67.4353 67.3966C74.8053 46.7766 86.8453 13.5866 115.035 12.1966C134.425 11.2566 148.505 28.5566 160.905 64.2166" stroke="#F31D5B" stroke-width="1.2" stroke-miterlimit="10"/>
<path d="M165.895 163.667C153.305 173.897 138.795 183.257 114.975 183.257C103.515 183.257 94.2553 180.767 88.6553 178.577" stroke="#F31D5B" stroke-width="1.2" stroke-miterlimit="10"/>
<path d="M138.195 51.2066C142.635 47.6766 149.495 43.8466 153.235 41.9566" stroke="#F31D5B" stroke-width="1.2" stroke-miterlimit="10"/>
<defs>
<radialGradient id="paint0_radial_2_196" cx="0" cy="0" r="1" gradientUnits="userSpaceOnUse" gradientTransform="translate(116.295 115.667) scale(124.3 123.8)">
<stop stop-color="#FFF0F5"/>
<stop offset="1" stop-color="#FF94C2"/>
</radialGradient>
<radialGradient id="paint1_radial_2_196" cx="0" cy="0" r="1" gradientUnits="userSpaceOnUse" gradientTransform="translate(115.795 115.767) scale(68.21 67.89)">
<stop stop-color="#FFF0F5"/>
<stop offset="1" stop-color="#FF94C2"/>
</radialGradient>
<radialGradient id="paint2_radial_2_196" cx="0" cy="0" r="1" gradientUnits="userSpaceOnUse" gradientTransform="translate(116.495 113.467) scale(50.46 50.22)">
<stop stop-color="#FFF0F5"/>
<stop offset="1" stop-color="#FF94C2"/>
</radialGradient>
</defs>
</svg>

