<svg width="238" height="234" viewBox="0 0 238 234" fill="none" xmlns="http://www.w3.org/2000/svg">
<path d="M52.49 233.15L37 199.15L1.52588e-05 195.84L27.86 171.26L20.01 135.13L52.59 153L84.13 134.65L76.74 171.36L104.18 195.9L68.11 199.47L52.49 233.15Z" fill="#E56093"/>
<path d="M88.69 154.25C97.79 143.78 161.85 75.65 178.85 57.15C191.25 43.59 200.98 33.6 206.19 33.86C209.65 36.61 200.73 46.7 191.69 55.84C175.95 71.75 107.02 137.85 88.69 154.25Z" fill="#E56093"/>
<path d="M75.69 127.56L88.08 82C89.13 78.36 91.08 77.86 92.83 78.26C95.04 78.81 95.94 81.76 94.04 85.96L75.89 127.06C75.64 127.71 75.44 128.01 75.69 127.56Z" fill="#F092B1"/>
<path d="M90.79 126.86C100.04 109.31 123.13 68.8 130.78 54.75C133.53 50.4 135.23 50.35 136.68 50.85C138.63 51.5 137.83 56.95 133.98 62.25C124.88 75.86 100.14 111.86 91.09 126.71C90.59 127.46 90.44 127.41 90.79 126.86Z" fill="#F092B1"/>
<path d="M96.39 166.4C114.38 155.85 151.1 133 172.74 120.7C180.39 116.25 185.14 114.95 186.99 116.55C189.09 118.35 185.94 123.85 177.74 127.7C159.15 137.3 119.88 156.05 98.94 166C96.79 167 95.69 166.9 96.39 166.4Z" fill="#F092B1"/>
<path d="M106.69 174.45C119.79 168.05 133.54 164.05 149.03 158C152.73 156.45 155.88 157 156.38 159C156.88 161.15 155.68 163.4 152.03 164.35C140.84 166.75 124.84 170.75 108.15 174.55C106.95 174.85 105.9 174.9 106.69 174.45Z" fill="#F092B1"/>
<path d="M221.74 33.76L216.24 22.6L203.94 21.05L212.59 12.4L210.29 0.300003L221.64 5.8L231.64 1.52588e-05L229.94 12.5L237.59 21.2L225.94 22.4L221.74 33.76Z" fill="#E56093"/>
<path d="M98.59 72.56L94.54 63.85L84.39 62.7L91.69 55.15L90.14 46.1L98.64 51L106.19 46.6L104.74 55.65L111.64 62.65L100.84 63.65L98.59 72.56Z" fill="#E56093"/>
<path d="M177.38 168.85L174.18 159.3L163.88 157.75L171.13 151.55L169.28 141.8L177.53 146.5L185.58 141.95L184.08 151.75L190.88 157.9L181.18 159.05L177.38 168.85Z" fill="#E56093"/>
<path d="M146.08 128.96L143.43 123.36L137.98 122.66L142.23 118.71L140.88 113.81L146.03 116.31L150.78 113.56L149.83 119.16L153.78 122.96L147.78 123.56L146.08 128.96Z" fill="#E56093"/>
<path d="M139.69 87.06L136.74 81.06L132.24 80.86L136.19 76.36L135.69 71.61L141.14 74.46L145.19 71.76L144.24 77.26L147.74 81.11L141.74 81.66L139.69 87.06Z" fill="#E56093"/>
<path d="M120.49 191.04C126.98 191.44 125.08 182.44 120.23 182.94C115.14 183.34 115.84 191.04 120.49 191.04Z" fill="#F9C7DC"/>
<path d="M107.49 123.16C111.44 123.16 110.94 117.41 107.64 117.41C104.19 117.41 104.19 123.01 107.49 123.16Z" fill="#E56093"/>
<path d="M118.29 38.96C124.34 39.36 124.19 30.36 118.49 30.11C112.54 29.76 112.34 38.56 118.29 38.96Z" fill="#F9C7DC"/>
<path d="M173.85 100.86C179.4 99.81 178.7 92.01 173.5 91.76C167.36 91.51 166.66 101.61 173.85 100.86Z" fill="#F9C7DC"/>
<path d="M206.02 63.96C208.17 62.16 207.67 58.81 205.07 58.66C201.12 58.26 200.77 64.76 205.07 64.36C205.47 64.36 205.77 64.21 206.02 63.96Z" fill="#E56093"/>
<path opacity="0.5" d="M208.96 107.06C219.55 105.36 219.4 89.91 208.91 89.16C197.96 88.41 197.06 107.71 208.96 107.06Z" fill="#F092B1"/>
<path opacity="0.5" d="M209.24 118.46L209.27 111.37H208.07L208.04 118.66L209.24 118.46Z" fill="#F092B1"/>
<path opacity="0.5" d="M216.87 116.86L213.18 109.17L212.08 109.71L215.87 117.36L216.87 116.86Z" fill="#F092B1"/>
<path opacity="0.5" d="M224.36 112.86L218.27 106.76L217.37 107.66L223.46 113.76L224.36 112.86Z" fill="#F092B1"/>
<path opacity="0.5" d="M227.97 106.06L220.17 102.36L219.67 103.46L227.47 107.16L227.97 106.06Z" fill="#F092B1"/>
<path opacity="0.5" d="M229.87 98.66H221.67V97.46H229.97L229.87 98.66Z" fill="#F092B1"/>
<path opacity="0.5" d="M228.06 90.76L220.27 94.01L219.77 92.91L227.62 89.66L228.06 90.76Z" fill="#F092B1"/>
<path opacity="0.5" d="M224.21 83.56L218.12 89.06L217.32 88.11L223.46 82.71L224.21 83.56Z" fill="#F092B1"/>
<path opacity="0.5" d="M216.77 79.36L213.27 87.21L212.17 86.71L215.77 78.76L216.77 79.36Z" fill="#F092B1"/>
<path opacity="0.5" d="M209.17 77.66L209.12 85.76L207.92 85.81L208.02 77.61L209.17 77.66Z" fill="#F092B1"/>
<path opacity="0.5" d="M202.68 79.56L205.93 86.86L204.83 87.41L201.53 80.06L202.68 79.56Z" fill="#F092B1"/>
<path opacity="0.5" d="M195.83 83.16L201.28 89.06L200.38 89.96L194.83 84.01L195.83 83.16Z" fill="#F092B1"/>
<path opacity="0.5" d="M190.93 89.66L198.23 93.11L197.73 94.21L190.33 90.86L190.93 89.66Z" fill="#F092B1"/>
<path opacity="0.5" d="M188.38 98.16L196.28 97.96V96.76L188.38 96.96V98.16Z" fill="#F092B1"/>
<path opacity="0.5" d="M190.08 106.76L197.88 103.01L198.38 104.11L190.58 107.86L190.08 106.76Z" fill="#F092B1"/>
<path opacity="0.5" d="M194.78 113.16L200.88 107.06L200.03 106.16L193.93 112.26L194.78 113.16Z" fill="#F092B1"/>
<path opacity="0.5" d="M202.87 117.26L205.17 109.71L204.07 109.26L201.67 117.01L202.87 117.26Z" fill="#F092B1"/>
<path opacity="0.5" d="M161.41 44.06C171.16 43.11 172.11 28.86 162.76 27.16C152.21 25.16 150.11 41.76 161.41 44.06Z" fill="#F092B1"/>
<path opacity="0.5" d="M161.61 56.36L161.81 47.91L160.61 47.96L160.51 56.31L161.61 56.36Z" fill="#F092B1"/>
<path opacity="0.5" d="M169.38 54.96L166.13 46.96L165.03 47.46L168.33 55.31L169.38 54.96Z" fill="#F092B1"/>
<path opacity="0.5" d="M176.87 50.16L170.68 43.71L169.78 44.6L175.97 51.06L176.87 50.16Z" fill="#F092B1"/>
<path opacity="0.5" d="M180.43 43.36L172.38 39.66L171.88 40.81L179.93 44.46L180.43 43.36Z" fill="#F092B1"/>
<path opacity="0.5" d="M181.93 35.86H174.08V34.66H181.98L181.93 35.86Z" fill="#F092B1"/>
<path opacity="0.5" d="M180.68 28.36L172.93 31.71L172.43 30.61L180.18 27.26L180.68 28.36Z" fill="#F092B1"/>
<path opacity="0.5" d="M176.13 21.16L169.98 27.26L169.13 26.36L175.23 20.26L176.13 21.16Z" fill="#F092B1"/>
<path opacity="0.5" d="M169.13 16.76L165.68 24.71L164.58 24.21L168.03 16.26L169.13 16.76Z" fill="#F092B1"/>
<path opacity="0.5" d="M161.38 15.26L161.43 23.16L160.23 23.21L160.18 15.31L161.38 15.26Z" fill="#F092B1"/>
<path opacity="0.5" d="M154.53 16.96L157.88 24.31L156.78 24.81L153.48 17.46L154.53 16.96Z" fill="#F092B1"/>
<path opacity="0.5" d="M147.63 21.56L153.68 27.66L152.83 28.56L146.73 22.46L147.63 21.56Z" fill="#F092B1"/>
<path opacity="0.5" d="M142.89 28.36L150.64 31.71L150.19 32.86L142.39 29.51L142.89 28.36Z" fill="#F092B1"/>
<path opacity="0.5" d="M141.29 36.66L149.19 36.56V35.36L141.29 35.46V36.66Z" fill="#F092B1"/>
<path opacity="0.5" d="M142.59 44.26L150.49 41.06L150.94 42.16L143.09 45.41L142.59 44.26Z" fill="#F092B1"/>
<path opacity="0.5" d="M147.08 50.66L153.63 44.76L154.43 45.71L147.88 51.61L147.08 50.66Z" fill="#F092B1"/>
<path opacity="0.5" d="M154.48 55.26L157.83 47.06L156.68 46.61L153.33 54.76L154.48 55.26Z" fill="#F092B1"/>
<path opacity="0.5" d="M58.99 109.56C66.44 108.91 65.99 98.01 59.04 97.21C51.24 96.31 50.64 109.31 58.99 109.56Z" fill="#F092B1"/>
<path opacity="0.5" d="M59.49 118.56L59.79 112.06L58.59 112.01L58.29 118.61L59.49 118.56Z" fill="#F092B1"/>
<path opacity="0.5" d="M65.99 117.16L62.79 111.01L61.74 111.61L65.04 117.66L65.99 117.16Z" fill="#F092B1"/>
<path opacity="0.5" d="M70.69 112.96L65.49 108.31L64.69 109.26L69.99 114.06L70.69 112.96Z" fill="#F092B1"/>
<path opacity="0.5" d="M74.09 106.76L67.24 104.86L66.94 106.01L73.89 107.96L74.09 106.76Z" fill="#F092B1"/>
<path opacity="0.5" d="M74.49 99.96L67.64 101.86L67.94 103.01L74.69 101.01L74.49 99.96Z" fill="#F092B1"/>
<path opacity="0.5" d="M70.79 93.76L65.59 97.91L66.34 98.91L71.59 94.71L70.79 93.76Z" fill="#F092B1"/>
<path opacity="0.5" d="M65.09 89.56L61.89 96.01L62.94 96.61L66.19 90.11L65.09 89.56Z" fill="#F092B1"/>
<path opacity="0.5" d="M59.29 88.36V94.56H58.09V88.36H59.29Z" fill="#F092B1"/>
<path opacity="0.5" d="M52.59 89.56L55.74 95.61L54.69 96.21L51.54 90.16L52.59 89.56Z" fill="#F092B1"/>
<path opacity="0.5" d="M47.59 93.66L52.79 98.11L52.04 99.11L46.74 94.56L47.59 93.66Z" fill="#F092B1"/>
<path opacity="0.5" d="M44.89 99.36L51.14 101.06L50.89 102.26L44.59 100.56L44.89 99.36Z" fill="#F092B1"/>
<path opacity="0.5" d="M45.29 106.56L51.64 104.61L51.84 105.81L45.54 107.66L45.29 106.56Z" fill="#F092B1"/>
<path opacity="0.5" d="M48.89 113.96L54.09 109.16L53.29 108.26L48.09 113.06L48.89 113.96Z" fill="#F092B1"/>
<path opacity="0.5" d="M54.89 117.76L57.59 111.66L56.49 111.16L53.79 117.41L54.89 117.76Z" fill="#F092B1"/>
</svg>
